<svg id="Layer_1" data-name="Layer 1" xmlns="http://www.w3.org/2000/svg" xmlns:xlink="http://www.w3.org/1999/xlink" viewBox="0 0 721 130"><defs><clipPath id="clip-path"><rect x="2.37068" y="2.53866" width="716.25865" height="124.77268" style="fill:none"/></clipPath></defs><g style="clip-path:url(#clip-path)"><path d="M311.56954,86.76152V60.73468c0-9.80691-6.24644-16.39691-16.31364-16.49061-5.29906-.08328-10.76469,1.56161-14.575,7.38122-2.863-4.60155-7.37079-7.38122-13.711-7.38122a13.73172,13.73172,0,0,0-12.14934,6.16316v-5.1325h-9.02611V86.76152h9.1198V63.7642c0-7.20423,3.9873-11.025,10.15047-11.025,5.98617,0,9.02612,3.91444,9.02612,10.94168V86.76152h9.10939V63.7642c0-7.20423,4.1643-11.025,10.15047-11.025,6.16317,0,9.11982,3.91444,9.11982,10.94168V86.76152Zm134.819-41.48679h-14.752V32.69857h-9.1094V45.27473h-8.42228V53.52h8.42228V72.43635c0,9.64034,3.727,15.36624,14.398,15.36624a21.18575,21.18575,0,0,0,11.28523-3.21691l-2.60268-7.71435a16.65721,16.65721,0,0,1-7.98505,2.34241c-4.50784,0-5.98618-2.77966-5.98618-6.944V53.53046h14.75206Zm76.977-1.04107a12.23257,12.23257,0,0,0-10.93127,6.07987v-5.0388h-8.94282V86.76152h9.00528V63.50393c0-6.85026,2.95667-10.671,8.84912-10.671a14.66863,14.66863,0,0,1,5.6426,1.04107l2.77965-8.50557a19.33283,19.33283,0,0,0-6.4234-1.13477M406.98393,48.57494c-4.33087-2.86295-10.32746-4.34127-16.91745-4.34127-10.50442,0-17.2714,5.03879-17.2714,13.2841,0,6.767,5.03879,10.93127,14.32518,12.23261l4.24757.61423c4.9451.68711,7.28751,1.98846,7.28751,4.33086,0,3.21692-3.28979,5.0388-9.45293,5.0388A22.13331,22.13331,0,0,1,375.39776,75.393l-4.24757,7.02725c4.96591,3.64376,11.21236,5.38235,17.95852,5.38235,11.98277,0,18.92671-5.6322,18.92671-13.53395,0-7.28752-5.46563-11.10826-14.49175-12.4096l-4.258-.61423c-3.904-.52053-7.02725-1.30134-7.02725-4.0706,0-3.03993,2.94623-4.86181,7.89133-4.86181a26.60981,26.60981,0,0,1,12.93014,3.56047Zm67.524-4.34127c-12.14934,0-20.6549,8.85953-20.6549,21.78967,0,13.1904,8.84913,21.77925,21.25874,21.77925,6.24644,0,11.98277-1.56161,17.01114-5.8196L487.6984,75.3097a19.70747,19.70747,0,0,1-12.05562,4.33087c-5.8196,0-11.10827-2.686-12.40961-10.15046h30.80536c.08327-1.12437.177-2.25913.177-3.46678-.09369-12.93013-8.07874-21.78967-19.70752-21.78967m-.177,8.07873c5.81959,0,9.54666,3.64376,10.50443,10.06718h-21.519c.94738-5.98617,4.59114-10.06718,11.01454-10.06718m-111.94664,13.711V45.27473h-9.02612v5.0388c-2.863-3.727-7.20424-6.07987-13.10711-6.07987-11.62881,0-20.7382,9.1198-20.7382,21.78967s9.10939,21.77926,20.7382,21.77926c5.9029,0,10.24416-2.34242,13.10711-6.07987v5.0388h9.02612Zm-33.585,0c0-7.28752,4.7681-13.28411,12.57615-13.28411,7.46451,0,12.49288,5.73632,12.49288,13.28411S348.82954,79.297,341.37545,79.297c-7.808,0-12.57615-5.98617-12.57615-13.27368m300.87027,0V45.27473H620.6539v5.0388c-2.87337-3.727-7.20421-6.07987-13.10714-6.07987-11.62878,0-20.73817,9.1198-20.73817,21.78967s9.10939,21.77926,20.73817,21.77926c5.90287,0,10.23377-2.34241,13.10714-6.07987v5.0388h9.01567Zm-33.58505,0c0-7.28752,4.77856-13.28411,12.58661-13.28411,7.46448,0,12.49289,5.73632,12.49289,13.28411S616.12519,79.297,608.67113,79.297c-7.808,0-12.58661-5.98617-12.58661-13.27368m-58.74777-.0937v35.76088h9.02609V81.63944c2.86295,3.73745,7.20421,6.07987,13.10714,6.07987,11.62878,0,20.73817-9.1198,20.73817-21.78967S571.09876,44.15039,559.47,44.15039c-5.90287,0-10.24419,2.34241-13.10714,6.06946v-5.0284h-9.02609Zm33.585,0c0,7.28752-4.76813,13.2841-12.5866,13.2841-7.46448,0-12.49289-5.73631-12.49289-13.2841S550.87071,52.656,558.33519,52.656c7.808,0,12.5866,5.98618,12.5866,13.27369m103.35782-17.261c-4.34126-2.87336-10.32743-4.34128-16.91744-4.34128-10.50446,0-17.27144,5.02839-17.27144,13.27369,0,6.767,5.03882,10.93127,14.31476,12.23261l4.258.61423c4.9451.69752,7.28751,1.98846,7.28751,4.34128,0,3.2065-3.30018,5.02838-9.453,5.02838a22.10209,22.10209,0,0,1-13.80465-4.34127l-4.22676,7.03766c4.95553,3.64376,11.202,5.37193,17.969,5.37193,11.97234,0,18.91628-5.63221,18.91628-13.53395,0-7.28752-5.46563-11.10826-14.49172-12.4096l-4.2788-.583c-3.904-.52053-7.02725-1.30134-7.02725-4.081,0-3.03994,2.94626-4.86182,7.89136-4.86182A26.766,26.766,0,0,1,670.37559,55.977l3.904-7.28751Zm43.30864,0c-4.34126-2.87336-10.32743-4.34128-16.92787-4.34128-10.494,0-17.261,5.02839-17.261,13.27369,0,6.767,5.02841,10.93127,14.31477,12.23261l4.24759.61423c4.95552.69752,7.28752,1.98846,7.28752,4.34128,0,3.2065-3.30019,5.02838-9.46339,5.02838a22.09155,22.09155,0,0,1-13.79422-4.34127l-4.258,7.03766c4.9451,3.64376,11.202,5.37193,17.96894,5.37193,11.97234,0,18.91629-5.63221,18.91629-13.53395,0-7.28752-5.46564-11.10826-14.49173-12.4096l-4.23711-.583c-3.904-.52053-7.02725-1.30134-7.02725-4.081,0-3.03994,2.94626-4.86182,7.90178-4.86182A26.766,26.766,0,0,1,713.69464,55.977Z"/></g><g style="clip-path:url(#clip-path)"><path d="M141.87454,2.53866a62.39154,62.39154,0,1,0,62.3603,62.42278v-.04165a62.39155,62.39155,0,0,0-62.3603-62.38113" style="fill:#f59c1b"/></g><g style="clip-path:url(#clip-path)"><path d="M64.75181,2.53866a62.39155,62.39155,0,1,0,62.39155,62.39155v-.01042A62.38113,62.38113,0,0,0,64.76223,2.53866h-.01042" style="fill:#e9001b"/></g><g style="clip-path:url(#clip-path)"><path d="M127.14336,64.91979a62.2354,62.2354,0,0,0-23.78854-49.02415,62.33949,62.33949,0,0,0,0,98.05873A62.25624,62.25624,0,0,0,127.1954,64.9198" style="fill:#ff5f00"/></g></svg>