<svg id="Layer_1" data-name="Layer 1" xmlns="http://www.w3.org/2000/svg" viewBox="0 0 721 130"><path d="M714.76407,127.79334v.33h.31a.28987.28987,0,0,0,.17,0,.15.15,0,0,0,.06-.13.14.14,0,0,0-.06-.12.29.29,0,0,0-.17,0Zm.32-.24a.58.58,0,0,1,.37.11.38.38,0,0,1,.13.29.34992.34992,0,0,1-.11.26.48.48,0,0,1-.29.12l.41.47h-.32l-.38-.46h-.13v.46h-.26v-1.25Zm-.08,1.69a.9.9,0,0,0,.4-.09,1,1,0,0,0,.33-.22,1.13011,1.13011,0,0,0,.23-.34,1.06969,1.06969,0,0,0,.08-.41,1.15016,1.15016,0,0,0-.08-.41,1.08989,1.08989,0,0,0-.23-.33,1.00018,1.00018,0,0,0-.33-.22.9.9,0,0,0-.4-.08,1,1,0,0,0-.42.08,1.10988,1.10988,0,0,0-.34.22,1.27007,1.27007,0,0,0-.22.33,1.15038,1.15038,0,0,0-.08.41,1.07007,1.07007,0,0,0,.08.41,1.32989,1.32989,0,0,0,.22.34,1.10951,1.10951,0,0,0,.34.22.99973.99973,0,0,0,.42.09m0-2.4a1.35,1.35,0,0,1,.53.1,1.46,1.46,0,0,1,.44.29,1.32936,1.32936,0,0,1,.29,1.48,1.54967,1.54967,0,0,1-.29.43,1.44,1.44,0,0,1-.44.28,1.2,1.2,0,0,1-.53.11,1.25983,1.25983,0,0,1-.55-.11,1.44015,1.44015,0,0,1-.44-.28,1.54967,1.54967,0,0,1-.29-.43,1.32936,1.32936,0,0,1,.29-1.48,1.46006,1.46006,0,0,1,.44-.29,1.42025,1.42025,0,0,1,.55-.1m-126.6-4.82a4.07008,4.07008,0,1,1-.00856.32942q-.0024-.16481.00856-.32942m11,0v-6.78h-2.96v1.64a5.16,5.16,0,0,0-4.29-2,7.13,7.13,0,0,0,0,14.24,5.14,5.14,0,0,0,4.29-2v1.65h2.95Zm99.66,0a4.07008,4.07008,0,1,1-.00856.32941q-.00242-.16479.00856-.32941m11,0v-12.23h-3v7.09a5.12,5.12,0,0,0-4.28-2,7.13,7.13,0,0,0,0,14.24,5.1,5.1,0,0,0,4.28-2v1.65h3Zm-74-4.48c1.9,0,3.12,1.19,3.43,3.29h-7a3.49,3.49,0,0,1,3.61-3.29m.05-2.64c-4,0-6.75,2.89-6.75,7.12a6.72916,6.72916,0,0,0,6.95,7.12,8.22,8.22,0,0,0,5.56-1.9l-1.44-2.18a6.55,6.55,0,0,1-4,1.42,3.78,3.78,0,0,1-4.06-3.33h10.08c0-.36.06-.74.06-1.13,0-4.23-2.65-7.12-6.45-7.12m35.62,7.12a4.11,4.11,0,1,1,4.11,4.34,4.06,4.06,0,0,1-4.11926-3.99986q-.00249-.1702.00926-.34014m11,0v-6.78h-2.95v1.64a5.15,5.15,0,0,0-4.28-2,7.13,7.13,0,0,0,0,14.24,5.13,5.13,0,0,0,4.28-2v1.65h2.95Zm-27.64,0a6.86,6.86,0,0,0,6.58383,7.12548q.328.013.65618-.00548a7.09,7.09,0,0,0,4.88-1.62l-1.44-2.38a5.94,5.94,0,0,1-3.55,1.22,4.35,4.35,0,0,1,0-8.68,5.94006,5.94006,0,0,1,3.55,1.27l1.42-2.39a7.13,7.13,0,0,0-4.88-1.61,6.85,6.85,0,0,0-7.23434,6.44278q-.01958.33827-.00566.67722m38-7.12a4,4,0,0,0-3.58,2v-1.64h-2.92v13.56h2.95v-7.6c0-2.25,1-3.49,2.89-3.49a4.72014,4.72014,0,0,1,1.85.34l.91-2.78a6.21,6.21,0,0,0-2.1-.37m-79.07,1.41a10.18,10.18,0,0,0-5.55-1.43c-3.43,0-5.65,1.64-5.65,4.34,0,2.21,1.65,3.57,4.68,4l1.4.2c1.61.23,2.38.65,2.38,1.42,0,1.05-1.08,1.64-3.09,1.64a7.23005,7.23005,0,0,1-4.52-1.42l-1.39,2.3a9.80988,9.80988,0,0,0,5.88,1.76c3.91,0,6.18-1.84,6.18-4.43,0-2.38-1.78-3.63-4.73-4l-1.39-.2c-1.28-.17-2.3-.43-2.3-1.34s1-1.58,2.58-1.58a8.79,8.79,0,0,1,4.23,1.16Zm38.04-1.43a4,4,0,0,0-3.57,2v-1.64h-2.93v13.56h3v-7.6c0-2.25,1-3.49,2.9-3.49a4.71,4.71,0,0,1,1.84.34l.91-2.78a6.16977,6.16977,0,0,0-2.1-.37m-25.17.34h-4.87v-4.12h-3v4.12h-2.74v2.64h2.75v6.19c0,3.15,1.22,5,4.71,5a6.84994,6.84994,0,0,0,3.69-1.05l-.85-2.52a5.42979,5.42979,0,0,1-2.61.76c-1.47,0-2-.91-2-2.27v-6.11h4.87Zm-44.15,13.49v-8.51a5,5,0,0,0-5.34-5.34,5.26,5.26,0,0,0-4.77,2.41,5,5,0,0,0-4.48-2.41,4.48,4.48,0,0,0-4,2v-1.67h-2.92v13.56h3v-7.52c0-2.35,1.31-3.6,3.33-3.6s3,1.27,3,3.57v7.55h3v-7.52c0-2.35,1.36-3.6,3.32-3.6s3,1.27,3,3.57v7.55Z" style="fill:#231f20"/><path d="M716.54407,83.69334v-2h-.51l-.6,1.36-.6-1.36h-.51v2h.36v-1.49l.56,1.29h.38l.56-1.3v1.5Zm-3.27,0v-1.64h.66v-.34h-1.69v.34h.66v1.64Z" style="fill:#f59210"/><path d="M657.82407,92.21335h-44.7v-80.33h44.7Z" style="fill:#ff5f00"/><path d="M615.98408,52.04334a51,51,0,0,1,19.51-40.17,51.09,51.09,0,1,0,0,80.34,51,51,0,0,1-19.51-40.17" style="fill:#e9001b"/><path d="M718.10407,52.04334a51.09,51.09,0,0,1-82.66,40.17,51.09,51.09,0,0,0,0-80.34,51.09,51.09,0,0,1,82.66,40.17" style="fill:#f59c1b"/><g id="g4158"><polygon id="polygon9" points="373.647 104.616 353.458 104.616 366.086 26.525 386.276 26.525 373.647 104.616" style="fill:#00579d"/><path id="path11" d="M446.83564,28.42939A49.89912,49.89912,0,0,0,428.734,25.10892c-19.94124,0-33.97738,10.63288-34.03257,25.83716-.17476,11.21235,10.0534,17.47618,17.68774,21.15538,7.81829,3.82637,10.47651,6.319,10.47651,9.72228-.08278,5.23366-6.319,7.64353-12.13216,7.64353-8.05743,0-12.3805-1.24173-18.94787-4.1483L389.12742,84.068l-2.82379,17.53138c4.737,2.15232,13.46586,4.06551,22.51669,4.15748,21.15538,0,34.95237-10.47651,35.14552-26.67417.08278-8.88526-5.31644-15.701-16.9427-21.26577-7.06405-3.578-11.38712-5.98789-11.38712-9.63949.08278-3.32048,3.6792-6.72374,11.62626-6.72374a34.12457,34.12457,0,0,1,14.97436,3.017l1.8396.82782Z" style="fill:#00579d"/><path id="path13" d="M473.68458,76.94881c1.66483-4.47943,8.10343-21.84524,8.10343-21.84524-.092.16557,1.65563-4.599,2.649-7.478l1.41649,6.73294s3.82637,18.69032,4.65419,22.59027Zm24.92657-50.4234H482.97456c-4.81976,0-8.48055,1.40729-10.55929,6.43859l-29.98545,71.61558H463.5852l4.24028-11.71824h25.91995c.57948,2.75939,2.40987,11.71824,2.40987,11.71824h18.74548l-16.28963-78.091Z" style="fill:#00579d"/><path id="path15" d="M336.58849,26.52541,316.822,79.77259l-2.16153-10.79844c-3.67919-12.46329-15.1215-26.00273-27.9251-32.73566l18.12,68.2951H326.204l31.74227-78.00817Z" style="fill:#00579d"/><path id="path17" d="M298.45362,26.52541H265.96631l-.33113,1.57286c25.34047,6.43859,42.12681,22.07518,49.0253,40.88507l-7.06406-35.87217c-1.16814-4.99451-4.737-6.4386-9.1428-6.56737Z" style="fill:#f8a41a"/></g></svg>