<svg id="Layer_1" data-name="Layer 1" xmlns="http://www.w3.org/2000/svg" viewBox="0 0 721 130"><path d="M253.0418,43.53342h1.437c8.82713,0,17.36688,2.99712,25.715,9.005a43.65669,43.65669,0,0,1,16.42258,33.94q0,16.93578-12.31694,30.10806a41.38482,41.38482,0,0,1-12.54958,8.704,41.90472,41.90472,0,0,1-17.27107,4.06459h-1.437c-8.9503,0-17.5448-3.06554-25.76976-9.12821A42.945,42.945,0,0,1,253.0418,43.58817Zm-27.631,42.945v.58847c0,7.21225,2.81921,13.82234,8.526,19.83026,5.88476,5.21417,12.31693,7.86915,19.2281,7.86915h1.08115c7.67755,0,14.58873-3.134,20.65138-9.37455a28.27418,28.27418,0,0,0,7.08907-18.32486v-.58847a28.20576,28.20576,0,0,0-8.7724-20.66508,30.10816,30.10816,0,0,0-9.99036-6.13109,27.9184,27.9184,0,0,0-8.745-1.49172H252.8639a28.57534,28.57534,0,0,0-14.42448,4.32461,33.132,33.132,0,0,0-6.2406,5.25523,28.23282,28.23282,0,0,0-5.47419,9.963A26.60459,26.60459,0,0,0,225.41081,86.47846Z" style="fill:#1a1a1a"/><path d="M312.38205,9.41552h.65689a7.14381,7.14381,0,0,1,5.95319,3.613,9.78493,9.78493,0,0,1,1.01274,5.03625V47.73487c0,1.25906.90324,2.28547,2.73709,2.99711a7.04676,7.04676,0,0,0,.88955.06843c.72533,0,2.7371-.958,5.95319-2.81921a44.01266,44.01266,0,0,1,18.25643-4.26987h1.437a42.54807,42.54807,0,0,1,22.581,6.96591A42.06921,42.06921,0,0,1,388.925,72.77929a43.41024,43.41024,0,0,1,2.28549,13.576v.479c0,10.08621-3.54453,19.39233-10.51044,27.86364-3.914,4.02354-6.48692,6.309-7.81441,6.96591a42.31545,42.31545,0,0,1-24.34651,7.69125,43.79348,43.79348,0,0,1-23.60745-6.9659,3.03807,3.03807,0,0,0-1.68331-.479h-.23265c-1.80649,0-3.134,1.36855-4.10564,4.10564a7.51335,7.51335,0,0,1-6.18585,3.36663,7.39016,7.39016,0,0,1-6.24057-3.7772,9.8394,9.8394,0,0,1-.8485-3.18872V16.25826c0-2.46339,1.36855-4.50252,4.10565-6.18584A8.21134,8.21134,0,0,1,312.38205,9.41552ZM320.00487,86.41v.6569c0,7.63651,3.12029,14.534,9.42929,20.61034,5.7616,4.8036,11.83794,7.19856,18.32486,7.19856h1.08115a27.672,27.672,0,0,0,18.96807-7.80072c5.88476-5.88476,8.7724-12.54958,8.7724-20.00818V86.41a27.84992,27.84992,0,0,0-8.34815-20.00817,26.24877,26.24877,0,0,0-10.57887-6.5964,25.38632,25.38632,0,0,0-8.63554-1.61489h-1.45065c-6.66483,0-12.85067,2.51813-18.667,7.62281A28.1784,28.1784,0,0,0,320.00487,86.41Z" style="fill:#1a1a1a"/><path d="M406.60657,14.82128h.49265c3.29821,0,5.88474,1.62858,7.80075,4.92678a8.12912,8.12912,0,0,1,.90324,3.77719v.8485c0,3.175-1.68333,5.76159-5.1047,7.69124a9.7303,9.7303,0,0,1-3.84561.83481c-3.79087,0-6.61007-1.916-8.34816-5.70684a7.171,7.171,0,0,1-.60216-2.81921v-.78007c0-3.79088,1.98441-6.55535,6.00795-8.2934A9.85327,9.85327,0,0,1,406.60657,14.82128Zm-.35584,28.89h1.13588a7.02061,7.02061,0,0,1,5.29627,2.81921,7.32173,7.32173,0,0,1,1.36855,3.90036v71.90351c0,2.6413-1.437,4.73518-4.25616,6.36375a8.32081,8.32081,0,0,1-2.58658.60217h-.65692a7.00694,7.00694,0,0,1-5.95319-3.66771,9.57969,9.57969,0,0,1-1.01271-4.92677V52.36056q0-5.69316,3.42137-7.56807a6.07643,6.07643,0,0,1,3.24353-1.08116Z" style="fill:#1a1a1a"/><path d="M462.16963,43.65659a42.21983,42.21983,0,0,1,24.44229,7.69124A7.33537,7.33537,0,0,1,489.13,57.05467a6.99334,6.99334,0,0,1-3.77721,6.11742,8.55333,8.55333,0,0,1-3.36661.90324,11.63287,11.63287,0,0,1-6.18582-2.395,28.27426,28.27426,0,0,0-13.75394-3.4898h-.479a28.36661,28.36661,0,0,0-18.50275,49.26773,29.25957,29.25957,0,0,0,11.41368,6.36375,28.38415,28.38415,0,0,0,7.08907,1.08116h.65692a28.73946,28.73946,0,0,0,15.98463-4.872,8.21125,8.21125,0,0,1,3.77721-1.01272,7.308,7.308,0,0,1,2.46337,14.10972,43.04084,43.04084,0,0,1-48.58346-2.8192,44.65589,44.65589,0,0,1-6.00794-5.88476,34.02309,34.02309,0,0,1-4.872-6.84274,42.57527,42.57527,0,0,1-5.58366-21.07564,43.01346,43.01346,0,0,1,8.71764-25.87925,59.75264,59.75264,0,0,1,5.58366-6.13109,44.99831,44.99831,0,0,1,8.704-6.00793A43.27349,43.27349,0,0,1,462.16963,43.65659Z" style="fill:#189a9d"/><path d="M504.81359,43.65659a8.21126,8.21126,0,0,1,5.70686,2.81921,3.55816,3.55816,0,0,0,1.97072.60216h.24633a12.3854,12.3854,0,0,0,3.90037-1.45066,32.28431,32.28431,0,0,1,10.88-1.97071,30.42289,30.42289,0,0,1,19.57022,7.267,12.90515,12.90515,0,0,1,1.50541,1.61488c-5.47419,5.58368-8.34815,8.34814-8.52607,8.34814a3.65382,3.65382,0,0,1-1.8612.60216,7.5407,7.5407,0,0,1-3.79087-1.68331,15.57413,15.57413,0,0,0-7.19861-1.61489,15.19083,15.19083,0,0,0-11.29053,5.10469,15.47831,15.47831,0,0,0-4.10564,10.68836v47.02331c0,3.12029-.83479,5.2826-2.58658,6.54166a6.4185,6.4185,0,0,1-4.25616,1.75174h-.72533a7.52709,7.52709,0,0,1-2.94237-.78007,8.3481,8.3481,0,0,1-3.54453-4.10565,9.71693,9.71693,0,0,1-.41055-3.42137V51.93631c0-2.94238.78008-5.03626,2.395-6.24058A7.13015,7.13015,0,0,1,504.81359,43.65659Z" style="fill:#189a9d"/><path d="M590.30679,43.53342c11.89269,0,22.34837,4.50253,31.285,13.45283,3.24345,3.54454,4.872,6.24058,4.872,8.04707a3.777,3.777,0,0,0,0,.90324,7.37663,7.37663,0,0,1-2.395,5.15942q-1.36852,1.08115-41.50805,29.61538c-40.13949,28.53423-2.28549,1.68332-6.84274,4.92677a3.69526,3.69526,0,0,0-1.01271,2.34022v.53373a3.36664,3.36664,0,0,0,1.738,2.7371,28.3565,28.3565,0,0,0,12.79593,3.42137h1.68333c6.4185,0,12.48115-2.395,18.25643-7.19857,3.12029-3.18872,4.98153-5.47419,5.47419-6.84274a29.191,29.191,0,0,0,2.7371-6.24058,11.60506,11.60506,0,0,1,2.3539-5.70684,7.63648,7.63648,0,0,1,5.1047-2.28547,6.97959,6.97959,0,0,1,6.96591,4.74886,5.4745,5.4745,0,0,1,.41054,2.28548v.23265c0,2.1623-1.08116,5.70684-3.12028,10.63361a46.8319,46.8319,0,0,1-5.76158,9.183,44.76609,44.76609,0,0,1-7.39015,7.03433,40.31755,40.31755,0,0,1-9.57984,5.47419,41.15218,41.15218,0,0,1-15.38246,3.24347h-1.36855a43.25975,43.25975,0,0,1-24.92125-8.21129,44.31426,44.31426,0,0,1-9.42932-9.57984,48.10105,48.10105,0,0,1-4.32461-7.49965,45.87348,45.87348,0,0,1-3.654-17.2437,43.62956,43.62956,0,0,1,10.20936-28.04155,45.50343,45.50343,0,0,1,6.96591-6.43217A42.65761,42.65761,0,0,1,590.30679,43.53342ZM561.92312,86.28686c0,3.914.479,6.25427,1.45065,6.96591a3.76363,3.76363,0,0,0,2.64129,1.02641c.8348,0,2.395-.958,4.68045-2.88764q.45163-.16424,33.69365-23.96328a3.55813,3.55813,0,0,0,1.25908-2.6413v-.53373a3.14764,3.14764,0,0,0-1.656-2.64129,27.91851,27.91851,0,0,0-12.79593-3.54454h-1.66963c-6.55536,0-12.79594,2.51813-18.74913,7.62282Q561.9231,74.79105,561.92312,86.28686Z" style="fill:#189a9d"/><path d="M711.30013,9.23761h.58847c2.655,0,4.74886,1.437,6.37743,4.32461a10.01871,10.01871,0,0,1,.58847,2.58655V122.33441c0,2.7371-1.56017,4.91309-4.612,6.4185a8.21121,8.21121,0,0,1-2.7371.479c-2.88761,0-5.1047-1.56015-6.61007-4.62569a3.6677,3.6677,0,0,0-3.48978-2.81921h-.24637a5.35106,5.35106,0,0,0-2.8192,1.08116,41.43965,41.43965,0,0,1-21.6778,6.36375H675.4031a42.73977,42.73977,0,0,1-24.46965-8.08813,41.65867,41.65867,0,0,1-10.15464-10.38727A42.507,42.507,0,0,1,633.10127,85.89a43.45135,43.45135,0,0,1,7.92391-24.63386c3.96878-5.10469,7.56807-8.52606,10.81152-10.38728a40.851,40.851,0,0,1,12.72748-6.00793,47.28337,47.28337,0,0,1,11.71477-1.5054,43.58842,43.58842,0,0,1,23.00529,6.84274,4.10517,4.10517,0,0,0,1.437.30108,3.65406,3.65406,0,0,0,3.48978-2.73709,7.66609,7.66609,0,0,0,0-1.02641v-28.849c0-4.02353,1.50541-6.66483,4.44778-8.04706A7.58176,7.58176,0,0,1,711.30013,9.23761ZM647.63529,85.98578v.9443q0,11.3521,9.12823,20.52822,8.73132,7.39016,18.37959,7.39016h1.49172c6.309,0,12.31693-2.3539,17.90059-6.96591a27.37184,27.37184,0,0,0,5.17311-5.95318,28.19239,28.19239,0,0,0,4.50253-14.99929v-.90324c0-7.49965-3.06553-14.34238-9.12823-20.41874-5.83-5.02257-11.9611-7.41753-18.55751-7.41753h-1.50541c-6.24058,0-12.19377,2.34022-17.90059,6.96591a31.02537,31.02537,0,0,0-5.1047,6.00793A28.069,28.069,0,0,0,647.63529,85.98578Z" style="fill:#189a9d"/><path d="M78.14136,54.27652a5.62469,5.62469,0,0,1-2.99712-.90324,5.54261,5.54261,0,0,1-1.68331-7.62281,49.67828,49.67828,0,0,1,68.48748-15.663q1.909,1.19834,3.70342,2.566a5.54131,5.54131,0,1,1-6.61009,8.89556,38.67517,38.67517,0,0,0-54.21423,7.2356q-1.09925,1.43786-2.06046,2.97377A5.47417,5.47417,0,0,1,78.14136,54.27652Z" style="fill:#1a1a1a"/><path d="M66.15288,39.6878a5.62469,5.62469,0,0,1-2.99712-.90324,5.47419,5.47419,0,0,1-1.72191-7.54776q.04554-.07246.09334-.14348a61.96785,61.96785,0,0,1,85.43053-19.53595q2.42518,1.52245,4.70205,3.26391a5.54131,5.54131,0,0,1-6.61009,8.89557,50.85524,50.85524,0,0,0-71.32,9.27181q-1.52806,1.98472-2.85529,4.11259A5.57,5.57,0,0,1,66.15288,39.6878Z" style="fill:#1a1a1a"/><path d="M191.36134,52.59321a38.73041,38.73041,0,0,0-8.77239-5.76159c-.65691-.30108-1.5054-.60215-2.395-1.01272-.24634-.12317-.54742-.1916-.78007-.30109a33.73468,33.73468,0,0,0-23.55271.78008,3.70826,3.70826,0,0,0-.41057.17791c-.54742.23265-1.02641.479-1.57383.71164s-1.01272.54743-1.56015.79377l-.479.28739a42.94494,42.94494,0,0,0-3.84561,2.58655,32.84421,32.84421,0,0,1-2.6413,2.28548,4.10563,4.10563,0,0,1-2.395,1.13589h-.3695a4.10563,4.10563,0,0,1-2.395-1.13589,25.49575,25.49575,0,0,1-2.6413-2.28548,37.1024,37.1024,0,0,0-3.84562-2.58655l-.49269-.28739c-.54742-.30109-1.02641-.54743-1.56014-.79377s-1.02641-.479-1.56014-.71164a1.40521,1.40521,0,0,1-.42425-.17791,35.29491,35.29491,0,0,0-12.878-2.53182,34.9394,34.9394,0,0,0-10.68836,1.75174,3.76359,3.76359,0,0,0-.79376.30109c-.88956.41056-1.73806.78007-2.395,1.01272a40.67352,40.67352,0,0,0-8.7724,5.76159c-3.59928,3.79088-5.88475,6.73326-6.66482,8.77239-2.46339,5.04994-3.66771,9.25139-3.66771,12.67276v45.73688a10.9483,10.9483,0,0,0,.84849,4.74886A10.38785,10.38785,0,0,0,86.4895,126.618a7.52748,7.52748,0,0,0,1.80649,1.08115,6.37731,6.37731,0,0,0,2.46338.60216h.24634a8.34839,8.34839,0,0,0,2.7371-.6569l.67059-.30109a8.21137,8.21137,0,0,0,2.94238-3.36662,11.55055,11.55055,0,0,0,.6569-4.20144V73.98362a16.25839,16.25839,0,0,1,3.0108-7.58176h0c.24634-.35582.54742-.78007.8485-1.1359a20.22724,20.22724,0,0,1,8.07444-6.06266.99893.99893,0,0,1,.35582-.12317,11.52353,11.52353,0,0,1,1.45066-.41056,2.73718,2.73718,0,0,1,.71165-.17792l1.20432-.19159,1.02641-.17791a11.11136,11.11136,0,0,1,1.36855,0h.958a11.64332,11.64332,0,0,1,2.09388.12317,2.73625,2.73625,0,0,1,.60216.12317,8.27975,8.27975,0,0,1,1.36855.24633,10.47055,10.47055,0,0,1,1.68331.479h.12317a20.09039,20.09039,0,0,1,9.37455,6.73326c2.21705,3.47612,3.35294,6.18584,3.35294,8.10181v46.01057a10.5925,10.5925,0,0,0,.90325,4.62569,8.48491,8.48491,0,0,0,1.92966,2.34022,8.33446,8.33446,0,0,0,1.49171.90325,9.23771,9.23771,0,0,0,2.6413.6569h.3695a9.23771,9.23771,0,0,0,2.6413-.6569,6.95216,6.95216,0,0,0,1.56014-.90325,9.58,9.58,0,0,0,1.916-2.34022,10.5925,10.5925,0,0,0,.90325-4.62569v-46.079c0-1.98439,1.14957-4.62569,3.36663-8.1018a19.65232,19.65232,0,0,1,9.37455-6.73325.19157.19157,0,0,0,.10948,0,13.57449,13.57449,0,0,1,1.68332-.479,9.77151,9.77151,0,0,1,1.36855-.24634,1.18315,1.18315,0,0,0,.60217-.12317c.6569,0,1.36854-.12317,2.10756-.12317h.958a11.675,11.675,0,0,1,1.36855,0l1.01272.17791,1.20432.1916.72533.17791c.479.10949,1.01272.30108,1.36855.41056a.79377.79377,0,0,0,.35582.12317,20.26814,20.26814,0,0,1,8.06075,6.00793,12.85308,12.85308,0,0,0,.83481,1.1359h0a16.12154,16.12154,0,0,1,2.99713,7.6365v45.86a11.52323,11.52323,0,0,0,.67058,4.20144,8.21137,8.21137,0,0,0,2.94238,3.36662,2.23094,2.23094,0,0,0,.65691.30109,8.42994,8.42994,0,0,0,2.7371.6569h.31475a6.309,6.309,0,0,0,2.46339-.60216,13.41156,13.41156,0,0,0,1.80648-1.08115,9.15526,9.15526,0,0,0,1.80648-2.09388,11.35879,11.35879,0,0,0,.83482-4.74886V74.03836c0-3.42137-1.20432-7.62281-3.66771-12.67276C197.2461,59.32647,194.96063,56.38409,191.36134,52.59321Z" style="fill:#1a1a1a"/></svg>