<svg id="Layer_1" data-name="Layer 1" xmlns="http://www.w3.org/2000/svg" viewBox="0 0 721 130"><path d="M512.19638,5.55176S505.016,2.67962,502.14391,10.578l-33.7476,94.06244s-2.87213,7.89838,5.02624,10.77051l38.77383,14.36068s7.89838,2.87214,10.05247-5.02624l33.7476-94.06245s2.87213-7.89837-5.02624-10.77051Z" style="fill:#12100e"/><path d="M548.09808,29.96491,530.86527,77.35515a117.41534,117.41534,0,0,0,1.43606-15.79674c.718-15.79675-2.1541-30.87546-7.89837-43.082L546.662,26.37474c1.43607,0,2.15411,1.43607,1.43607,3.59017.718-.718.718,0,0,0M488.50126,68.73875a108.41648,108.41648,0,0,1,18.66888,12.92461c14.36068,12.92461,13.64264,28.00333,10.05247,26.56725h0L482.039,95.306a2.62274,2.62274,0,0,1-1.43607-3.59017h0Zm-11.48854,33.02956a1.37582,1.37582,0,0,1,2.1541-.718h0l10.05248,3.59017s.718,0,0,.718h0c-.718.718-.718,1.43607-1.43607,2.1541,0,.718-.718,1.43607-.718,2.15409a.70324.70324,0,0,1-.718.718h0l-10.05247-3.59017c-.718,0-1.43607-1.43607-1.43607-2.87213h0Zm15.07871,6.4623a4.36559,4.36559,0,0,1,6.46231-2.87213h0c2.87213.718,3.59017,3.59017,2.87213,6.4623a5.1374,5.1374,0,0,1-6.4623,3.59017h0c-2.87214-1.43607-4.30821-4.3082-2.87214-7.18034m12.92461,5.02625c0-.718.718-1.43608.718-2.1541a.70324.70324,0,0,1,.718-.718h0l10.05247,3.59017c.718,0,1.43607,1.43608,1.43607,2.87214l-.718,2.15409c-.718.718-1.43607,1.43608-2.1541,1.43608h0L505.016,116.847s-.718-.718,0-.718h0c-.718-1.43607,0-2.15411,0-2.87213m14.36068,9.33443,33.02957-92.62637s2.1541-5.74428-3.59017-7.18034L520.81279,12.7321a105.039,105.039,0,0,0-6.4623-9.33444h0l-.718-2.87214a2.184,2.184,0,0,0-2.87213,0L496.39964,9.86a40.68957,40.68957,0,0,0-16.51479-8.6164l-2.1541-.718a2.6378,2.6378,0,0,0-2.1541.718l-28.00332,48.8263a2.63784,2.63784,0,0,0,.718,2.15411h.718l2.15411.718a195.32048,195.32048,0,0,1,33.74759,13.64264l-13.64264,38.0558s-2.15411,5.74427,3.59016,7.18034l37.33777,14.36068s5.74428,2.1541,7.18034-3.59017" style="fill:#fff"/><path d="M463.37007,52.942c20.823,7.89838,36.61974,15.79675,46.67221,25.13119,7.18034,6.4623,11.48854,13.64264,12.92461,19.38692a21.24294,21.24294,0,0,0,1.43607-7.18034c1.43606-10.77051,2.1541-32.31153-4.3082-46.67221-8.61641-17.95085-14.36068-22.259-25.84923-30.87546h0C489.2193,9.86,484.19306,6.98783,478.44879,5.55176h0L453.3176,49.35183c3.59017,1.43607,7.18034,2.15411,10.05247,3.59017" style="fill:#07638e"/><path d="M528.71116,59.4043c.718-21.541-5.02623-39.49186-16.51478-53.85254h0L500.70784,12.7321c10.05248,7.18034,15.79675,12.92461,23.69512,29.43939,1.43606,5.02624,3.59017,10.77051,4.3082,17.23281" style="fill:#07638e"/><path d="M494.96357,115.411c2.87213.718,5.74427-.718,6.4623-2.87213h0c.718-2.87213,0-5.74427-2.87213-6.4623s-5.74428.718-6.46231,2.87213h0a5.311,5.311,0,0,0,2.87214,6.4623m-5.74427-10.05247c-.718.718-.718,1.43607-1.43607,2.1541,0,.718-.718,1.43607-.718,2.15409a.70324.70324,0,0,1-.718.718h0l-10.05247-3.59017c-.718,0-1.43607-1.43607-1.43607-2.87213h0l.718-2.1541c1.43607-.718,2.87214-1.43607,3.59017-.718h0l10.05248,3.59017v.718h0m17.23281,5.02623h0c-.718,1.43607-1.43607,2.15411-1.43607,2.87215s-.718,1.43607-1.43606,2.15409v.718h0l10.05247,3.59017c.718.718,2.1541,0,2.87213-1.43607h0l.718-2.1541a2.8667,2.8667,0,0,0-1.43607-2.87213Z" style="fill:#12100e"/><path d="M531.5833,77.35515l16.51478-47.39024a2.62274,2.62274,0,0,0-1.43607-3.59017h0L524.403,18.47637a94.241,94.241,0,0,1,7.89838,43.082,116.33839,116.33839,0,0,1-.718,15.79674" style="fill:#12100e"/><path d="M489.2193,68.73875c-.718,0-.718.718-.718,1.43606l-7.89837,20.823A2.62274,2.62274,0,0,0,482.039,94.588h0l35.18366,13.64264h0c3.59017,1.43608,4.3082-13.64264-10.05247-26.56725-5.02624-5.02624-11.48855-9.33444-17.95085-12.92461" style="fill:#e21118"/><path d="M484.91109,55.0961c-10.05247-1.43607-16.51478-10.05247-15.79674-20.105,1.43606-10.05247,10.7705-16.51478,20.823-15.07871a17.35248,17.35248,0,0,1,15.07871,20.105A17.35248,17.35248,0,0,1,484.91109,55.0961" style="fill:#fff"/><polygon points="593.334 38.581 593.334 63.713 586.872 63.713 586.872 49.352 582.564 56.532 578.974 56.532 573.947 49.352 573.947 63.713 568.203 63.713 568.203 38.581 573.947 38.581 581.128 48.634 587.59 38.581 593.334 38.581" style="fill:#07638e"/><polygon points="596.924 44.326 596.924 38.581 619.901 38.581 619.901 44.326 612.003 44.326 612.003 63.713 604.823 63.713 604.823 44.326 596.924 44.326" style="fill:#07638e"/><polygon points="645.751 38.581 645.751 63.713 640.724 63.713 629.236 49.352 629.236 63.713 622.774 63.713 622.774 38.581 629.236 38.581 640.006 52.224 640.006 38.581 645.751 38.581" style="fill:#07638e"/><polygon points="596.924 70.893 587.59 85.254 577.537 70.893 568.203 70.893 568.203 108.231 577.537 108.231 577.537 87.408 584.718 97.46 589.744 97.46 596.206 87.408 596.206 108.231 606.259 108.231 606.259 70.893 596.924 70.893" style="fill:#07638e"/><path d="M632.10806,94.588c0,4.30821-2.1541,7.18034-5.74427,7.18034s-6.4623-2.87213-6.4623-7.89837c0-4.30821,2.15409-7.18034,5.74426-7.18034,4.3082,0,6.46231,3.59017,6.46231,7.89837m10.05247-.718c0-7.89838-6.4623-14.36068-15.79675-14.36068S609.849,85.97156,609.849,94.588c0,7.89838,6.4623,14.36068,15.79675,14.36068s16.51478-6.4623,16.51478-15.07871" style="fill:#07638e"/><polygon points="675.19 70.893 665.856 85.254 655.085 70.893 645.751 70.893 645.751 108.231 655.085 108.231 655.085 87.408 662.265 97.46 668.01 97.46 674.472 87.408 674.472 108.231 684.525 108.231 684.525 70.893 675.19 70.893" style="fill:#07638e"/><path d="M710.37374,94.588c0,4.30821-2.1541,7.18034-5.74427,7.18034s-6.46231-2.87213-6.46231-7.89837c0-4.30821,2.15409-7.18034,5.74426-7.18034s6.46232,3.59017,6.46232,7.89837m10.05249-.718c0-7.89838-6.46232-14.36068-15.79676-14.36068S688.1147,85.97156,688.1147,94.588c0,7.89838,6.46232,14.36068,15.79675,14.36068s16.51478-6.4623,16.51478-15.07871" style="fill:#07638e"/><path d="M498.55374,48.6338l-5.02624-9.33445c2.87214-.718,4.3082-3.59016,4.3082-6.4623,0-4.3082-3.59017-7.18034-8.6164-7.18034H478.44879V48.6338h4.3082V40.01739h5.74427l5.02624,7.89838h5.02624ZM482.757,29.24688h5.74427c2.87214,0,4.30821,1.43607,4.30821,3.59017s-1.43607,3.59017-4.30821,3.59017H482.757Z" style="fill:#08688f"/></svg>