<svg id="Layer_1" data-name="Layer 1" xmlns="http://www.w3.org/2000/svg" viewBox="0 0 318.92 49.63"><defs><style>.cls-1{fill:#002f63;}.cls-2{fill:#e72d87;}</style></defs><path class="cls-1" d="M191.73,29.52,199.07,7.8l7.32,21.72Zm2.45-29L175.37,49h9.32l4.79-12.6h18.89l4.8,12.6H223L204.61.56Zm78.48,26.69h17.67V20.3H272.56V7.8h21.33L295.12.65H263.54V49H296V41.54h-23.3ZM151.13,29.6h10.06v12a17.39,17.39,0,0,1-7.53,1.59,19.8,19.8,0,0,1-9.3-2.35c-4.32-2.44-6.49-7.5-6.49-15.5a30.56,30.56,0,0,1,2.07-11.66c1.88-4.51,6.3-6.86,12.69-6.86,5.08,0,8.36,1.41,12.13,3.85l4.51-5.45A27.24,27.24,0,0,0,152.54,0C136.85,0,128,9.87,128,24.81s9.21,24.82,25.18,24.82a34.87,34.87,0,0,0,17-4.05v-23H149.82ZM218.34,7.8h14.37V49h8.93V7.8h14.58L257.43.65H218.34ZM17.1,24h-8V7.71h6.57c6.12,0,11.57,1,11.57,8.08C27.25,22,23.11,24,17.1,24M29.42,3C26.4,1.4,23.86.65,14.83.65H.18V49H9.11V30.82h8.18c6.57,0,10.33-1.22,14.1-4a13.82,13.82,0,0,0,5.83-11.56c0-5.36-2.93-9.59-7.8-12.22M106.1,16.63a53.07,53.07,0,0,0-3,6.68,61.14,61.14,0,0,0-3-6.68L91.15.65h-11l18,28.77V49h9.3V29.42L125.65.65H115.22ZM53.56,29.52,60.9,7.8l7.32,21.72ZM56,.56,37.21,49h9.3l4.78-12.6H70.2L75,49h9.87L66.44.56Z"/><path class="cls-2" d="M304.93,40.31a6.74,6.74,0,0,0-.6,2.92V49h14.39V45.5h-4.88V43.29a6.24,6.24,0,0,0-1.26-4.14,4.16,4.16,0,0,0-3.37-1.51,4.7,4.7,0,0,0-2.55.7A4.63,4.63,0,0,0,304.93,40.31Zm5.72,1.38a2.12,2.12,0,0,1,.51,1.54V45.5H307V43.19a2,2,0,0,1,.62-1.49,2.32,2.32,0,0,1,1.61-.54A1.87,1.87,0,0,1,310.65,41.69Z"/><polygon class="cls-2" points="304.32 32.32 304.32 35.79 318.72 35.79 318.72 26.28 316.05 26.28 316.05 32.32 304.32 32.32"/><path class="cls-2" d="M313.73,17.23a2.78,2.78,0,0,1,1.93.56,2.14,2.14,0,0,1,.59,1.63c0,1.42-.79,2.15-2.36,2.19h-9.56V25.1h9.49a4.85,4.85,0,0,0,3.73-1.54,6,6,0,0,0,1.37-4.14,7,7,0,0,0-.61-3,4.4,4.4,0,0,0-1.79-1.95,5.35,5.35,0,0,0-2.77-.69h-9.42v3.47Z"/><path class="cls-2" d="M311.17,3a12.59,12.59,0,0,0-1,2.45,7.66,7.66,0,0,1-.93,2.09,1.27,1.27,0,0,1-1,.59,1.25,1.25,0,0,1-1-.54,2.33,2.33,0,0,1-.41-1.47,2.12,2.12,0,0,1,.48-1.46,1.76,1.76,0,0,1,1.37-.54V.7a4.08,4.08,0,0,0-2.34.69,4.4,4.4,0,0,0-1.58,1.91,6.7,6.7,0,0,0-.55,2.78A7.68,7.68,0,0,0,304.64,9a4.47,4.47,0,0,0,1.42,2,3.35,3.35,0,0,0,2.11.7q2.4,0,3.78-2.8a19.84,19.84,0,0,0,.88-2.21,6.41,6.41,0,0,1,.88-1.9,1.42,1.42,0,0,1,1.18-.54,1.25,1.25,0,0,1,1.05.5A2.31,2.31,0,0,1,316.31,6a2.82,2.82,0,0,1-.55,2,2.24,2.24,0,0,1-1.71.59v3.48a4.48,4.48,0,0,0,2.52-.71,4.78,4.78,0,0,0,1.72-2.14A7.7,7.7,0,0,0,318.92,6a6.32,6.32,0,0,0-1.08-3.9,3.53,3.53,0,0,0-3-1.43A4.11,4.11,0,0,0,311.17,3Z"/></svg>