<svg id="Layer_1" data-name="Layer 1" xmlns="http://www.w3.org/2000/svg" viewBox="0 0 318.92 79.66"><defs><style>.cls-1{fill:#002f63;}.cls-2{fill:#1d70b7;}</style></defs><path class="cls-1" d="M233.58,43.72l6-17.78,6,17.78Zm2-23.71L220.19,59.65h7.62l3.93-10.32H247.2l3.93,10.32h8.08L244.12,20Zm64.26,21.85h14.47V36.17H299.76V25.94h17.46l1-5.85H292.37V59.65h26.55V53.57H299.84Zm-99.51,1.93h8.24v9.86a14.34,14.34,0,0,1-6.16,1.3A16.14,16.14,0,0,1,194.79,53c-3.54-2-5.31-6.14-5.31-12.68a24.8,24.8,0,0,1,1.7-9.55c1.53-3.7,5.15-5.63,10.39-5.63a16.66,16.66,0,0,1,9.93,3.16l3.69-4.46a22.34,22.34,0,0,0-13.7-4.31c-12.85,0-20.09,8.08-20.09,20.31S188.94,60.18,202,60.18A28.59,28.59,0,0,0,216,56.87V38h-16.7Zm55-17.85h11.77V59.65h7.31V25.94h11.94l1-5.85h-32ZM90.59,39.18H84.06V25.87h5.37c5,0,9.48.84,9.48,6.61,0,5.07-3.4,6.7-8.32,6.7M100.68,22c-2.47-1.32-4.55-1.93-11.94-1.93h-12V59.65h7.32V44.78h6.69c5.38,0,8.46-1,11.54-3.3A11.29,11.29,0,0,0,107.06,32c0-4.39-2.39-7.85-6.38-10m62.79,11.15A43.25,43.25,0,0,0,161,38.64a50.55,50.55,0,0,0-2.47-5.47l-7.31-13.08h-9l14.7,23.55v16h7.62v-16l14.92-23.55h-8.54Zm-43,10.55,6-17.78,6,17.78Zm2-23.71-15.4,39.64h7.61l3.92-10.32h15.48L138,59.65h8.08L131,20Z"/><path class="cls-1" d="M42.65,34.48,28.43,46.07,14.22,57.65h-.05L0,46.18V69.24l11.59,9.42.33.27a3.64,3.64,0,0,0,4.38,0s40.47-34.38,40.47-39l0-16.93Z"/><polygon class="cls-2" points="0 0 0 23.09 14.07 34.48 28.29 22.9 13.98 11.32 0 0"/></svg>