<?xml version="1.0" encoding="UTF-8" standalone="no"?>
<!DOCTYPE svg PUBLIC "-//W3C//DTD SVG 1.1//EN" "http://www.w3.org/Graphics/SVG/1.1/DTD/svg11.dtd">
<svg width="100%" height="100%" viewBox="0 0 2918 1108" version="1.1" xmlns="http://www.w3.org/2000/svg" xmlns:xlink="http://www.w3.org/1999/xlink" xml:space="preserve" xmlns:serif="http://www.serif.com/" style="fill-rule:evenodd;clip-rule:evenodd;stroke-linejoin:round;stroke-miterlimit:2;">
    <g transform="matrix(1,0,0,1,-295.275,-625.067)">
        <g transform="matrix(4.16667,0,0,4.16667,0,0)">
            <path d="M689.882,225.438C690.173,234.618 695.169,238.826 724.998,248.662C753.876,258.28 770.412,269.367 771.006,288.89C771.734,312.952 749.734,326.714 721.952,326.714C701.735,326.714 683.249,320.348 668.181,307.804C667.169,306.831 666.447,304.863 668.269,302.901C668.777,302.354 669.444,301.855 670.06,301.44C671.357,300.571 673.12,299.616 674.954,298.777C676.804,297.934 678.843,297.159 680.661,296.727C681.573,296.509 682.559,296.344 683.508,296.346C684.296,296.35 685.548,296.479 686.622,297.156C697.428,304.683 708.753,308.375 722.537,308.375C740.162,308.375 750.166,300.953 750.166,291.221C750.166,281.532 745.406,275.626 716.567,266.21C686.269,256.132 669.752,247.431 669.54,225.547C669.326,203.396 690.512,190.591 716.491,190.591C734.276,190.591 752.745,197.967 765.369,209.945C766.09,210.63 767.189,212.849 764.909,214.758C764.462,215.133 763.877,215.524 763.287,215.888C762.106,216.614 760.445,217.505 758.693,218.321C756.896,219.156 755.283,219.826 753.695,220.264C752.867,220.494 751.969,220.684 751.11,220.728C750.38,220.762 749.022,220.733 747.875,219.861C739.283,213.333 728.213,209.112 716.491,209.112C699.076,209.112 689.599,216.534 689.882,225.438ZM433.304,274.452L427.659,274.452C426.198,274.452 425.365,273.863 424.935,273.172C424.551,271.885 424.489,270.929 424.532,269.458C424.577,267.991 424.729,266.036 425.159,264.079C426,260.238 428.034,255.928 432.903,255.928L452.519,255.93C465.993,255.93 476.678,245.835 476.678,233.661C476.678,221.486 465.993,211.391 452.519,211.391L411.405,211.395L411.408,321.812C411.408,323.543 410.004,324.331 408.893,324.671C408.331,324.843 407.766,324.928 407.342,324.969L401.098,325.005C401.081,325.005 398.668,325.002 396.244,324.166C393.82,323.332 391.181,321.578 391.181,318.004L391.181,200.115C391.181,195.75 395.015,194.09 397.956,193.455C401.061,192.785 405.045,192.768 408.596,192.768L453.319,192.768C477.255,192.768 496.851,210.976 496.851,233.661C496.851,250.187 486.434,264.291 471.544,270.72C473.536,272.367 475.248,274.131 476.718,276.106L516.382,320.065C518.362,322.412 517.043,323.841 515.401,324.441C514.645,324.718 513.797,324.857 513.159,324.928L512.039,325.005C512.039,325.005 508.019,325.134 505.476,325.005C503.188,324.888 500.603,324.779 498.261,324.327C495.898,323.871 493.652,323.044 492.203,321.398C487.245,315.768 460.458,287.006 460.458,287.006C456.811,282.122 447.317,274.658 433.304,274.452ZM642.821,214.548C642.374,214.922 641.79,215.314 641.2,215.677C640.019,216.403 638.36,217.294 636.605,218.11C634.808,218.944 632.918,219.696 631.33,220.133C630.503,220.361 629.605,220.552 628.745,220.594C628.016,220.629 626.661,220.601 625.51,219.729C616.927,213.206 606.137,209.322 594.404,209.322C566.444,209.322 543.779,231.408 543.779,258.652C543.779,285.897 566.444,307.982 594.404,307.982C606.287,307.982 617.204,303.998 625.841,297.324C626.929,296.481 628.206,296.35 629.033,296.346C629.941,296.344 630.881,296.5 631.749,296.709C633.478,297.121 635.416,297.857 637.176,298.661C638.922,299.456 640.597,300.366 641.833,301.194C642.42,301.589 643.055,302.061 643.541,302.585C645.291,304.468 644.592,306.313 643.626,307.24C630.978,319.408 613.587,326.924 594.404,326.924C555.765,326.924 523.378,296.413 523.378,258.652C523.378,220.891 555.765,190.38 594.404,190.38C613.415,190.38 630.661,197.759 643.281,209.736C644.005,210.418 645.101,212.638 642.821,214.548ZM224.928,158.734L300.446,232.288C302.288,234.084 303.373,236.565 303.373,239.306C303.373,244.786 298.816,249.228 293.193,249.228L262.646,249.228C259.834,249.228 257.289,248.117 255.448,246.322L200.207,192.496C198.367,190.724 195.839,189.7 193.047,189.7C187.425,189.7 182.893,194.142 182.893,199.622L182.893,219.464C182.893,235.909 169.21,249.239 152.335,249.239L91.228,249.231C85.184,249.231 79.509,250.944 74.768,253.895C74.372,254.137 73.934,254.276 73.434,254.276C72.016,254.276 70.866,253.155 70.866,251.773C70.866,251.081 71.154,250.454 71.621,250.001L104.072,218.386C109.601,212.997 117.241,209.543 125.68,209.543L162.503,209.543C168.128,209.543 172.685,205.1 172.685,199.621L172.685,179.778C172.685,163.342 186.359,150.016 203.23,150.016C211.663,150.016 219.402,153.346 224.928,158.734ZM161.169,359.563L85.651,286.009C83.806,284.212 82.724,281.732 82.724,278.993C82.724,273.511 87.281,269.07 92.904,269.07L123.451,269.07C126.262,269.07 128.808,270.18 130.649,271.976L185.891,325.802C187.73,327.574 190.258,328.596 193.047,328.596C198.672,328.596 203.204,324.155 203.204,318.675L203.204,298.833C203.204,282.389 216.887,269.057 233.763,269.057L294.869,269.067C300.912,269.067 306.589,267.354 311.329,264.401C311.725,264.16 312.162,264.021 312.663,264.021C314.081,264.021 315.231,265.142 315.231,266.524C315.231,267.215 314.943,267.842 314.476,268.296L282.025,299.912C276.493,305.299 268.854,308.755 260.417,308.755L223.594,308.755C217.97,308.755 213.412,313.196 213.412,318.676L213.412,338.52C213.412,354.956 199.738,368.283 182.867,368.283C174.434,368.283 166.695,364.951 161.169,359.563Z" style="fill:rgb(240,84,34);fill-rule:nonzero;"/>
            <path d="M399.471,385.418C398.568,385.418 397.666,385.488 397.212,385.555C397.109,387.987 397.074,389.165 397.074,391.94C397.074,395.304 397.074,396.555 397.212,399.227L399.92,399.227C403.111,399.227 404.642,398.281 404.642,396.345C404.642,394.193 402.663,393.189 400.057,393.189L398.501,393.189L399.572,390.379L400.719,390.379C402.033,390.379 403.806,389.684 403.806,387.987C403.806,386.182 402.174,385.418 399.471,385.418ZM402.318,383.053C405.785,383.053 409.562,384.304 409.562,387.497C409.562,389.23 408.075,390.79 405.855,391.557C408.803,392.632 410.501,394.332 410.501,396.555C410.501,400.439 405.785,401.761 401.339,401.761L391.179,401.761C391.418,399.329 391.49,395.823 391.49,391.94C391.49,389.374 391.455,385.488 391.208,383.053L402.318,383.053Z" style="fill:rgb(35,31,32);fill-rule:nonzero;"/>
            <path d="M431.114,383.053C430.941,385.173 430.834,390.097 430.834,391.94C430.834,393.643 430.87,399.19 431.114,401.761L426.706,401.761L419.631,391.311C419.038,390.48 418.626,389.684 418.453,388.746L418.453,394.677C418.453,396.93 418.518,400.127 418.726,401.761L413.697,401.761C414.004,398.916 414.04,393.57 414.04,391.94C414.04,390.169 413.938,385.173 413.8,383.053L419.524,383.053L425.491,392.771C425.805,393.255 425.908,393.499 426.052,393.917L426.052,383.053L431.114,383.053Z" style="fill:rgb(35,31,32);fill-rule:nonzero;"/>
            <path d="M441.38,385.661C441.38,386.874 441.313,388.123 441.313,389.338C441.313,390.234 441.354,390.928 441.38,391.591C441.593,391.622 442.566,391.622 443.196,391.622C445.166,391.622 447.908,391.071 447.908,388.536C447.908,386.075 445.098,385.627 442.982,385.627C442.7,385.627 441.666,385.627 441.38,385.661ZM444.751,383.053C448.809,383.053 453.706,384.201 453.706,388.536C453.706,392.356 450.233,394.264 443.196,394.264C442.775,394.264 441.63,394.264 441.313,394.229C441.452,396.827 441.42,399.992 441.593,401.761L435.451,401.761C435.694,399.19 435.766,394.957 435.766,391.94C435.766,389.266 435.694,384.824 435.451,383.053L444.751,383.053Z" style="fill:rgb(35,31,32);fill-rule:nonzero;"/>
            <path d="M469.699,385.661C469.699,386.874 469.633,388.123 469.633,389.338C469.633,390.234 469.667,390.928 469.699,391.591C469.907,391.622 470.879,391.622 471.503,391.622C473.483,391.622 476.222,391.071 476.222,388.536C476.222,386.075 473.41,385.627 471.301,385.627C471.017,385.627 469.978,385.627 469.699,385.661ZM473.064,383.053C477.123,383.053 482.019,384.201 482.019,388.536C482.019,392.356 478.55,394.264 471.503,394.264C471.085,394.264 469.943,394.264 469.633,394.229C469.763,396.827 469.733,399.992 469.907,401.761L463.768,401.761C464.008,399.19 464.08,394.957 464.08,391.94C464.08,389.266 464.008,384.824 463.768,383.053L473.064,383.053Z" style="fill:rgb(35,31,32);fill-rule:nonzero;"/>
            <path d="M492.412,394.819C491.686,393.015 490.673,390.754 490.192,389.199C489.671,390.79 488.561,393.255 488.009,394.819C488.697,394.85 489.636,394.886 490.265,394.886C491.124,394.886 491.58,394.85 492.412,394.819ZM492.936,383.053C493.629,385.274 499.806,398.742 501.225,401.761L495.082,401.761C494.842,401.028 494.353,400.026 493.455,397.665C492.512,397.631 491.542,397.631 490.265,397.631C489.013,397.631 488.112,397.665 487.101,397.703C486.551,399.227 486.061,400.439 485.611,401.761L480.269,401.761C481.307,399.435 487.451,386.043 488.561,383.053L492.936,383.053Z" style="fill:rgb(35,31,32);fill-rule:nonzero;"/>
            <path d="M512.711,383.053C516.807,383.053 521.702,384.514 521.702,388.854C521.702,391.174 519.964,392.84 517.255,393.917C517.812,394.886 522.354,400.788 523.258,401.761L516.563,401.761C515.383,399.506 513.13,395.615 510.906,392.321C513.581,392.662 515.901,391.389 515.901,388.818C515.901,386.354 513.059,385.627 511.669,385.627C511.045,385.627 509.866,385.627 509.449,385.661C509.346,387.951 509.31,390.688 509.31,391.94C509.31,393.57 509.31,398.916 509.626,401.761L503.374,401.761C503.69,398.981 503.762,395.687 503.762,391.94C503.762,388.782 503.727,384.962 503.445,383.053L512.711,383.053Z" style="fill:rgb(35,31,32);fill-rule:nonzero;"/>
            <path d="M531.868,383.053C531.724,385.173 531.621,390.169 531.621,391.974C531.621,393.643 531.621,399.19 531.868,401.761L525.69,401.761C525.998,398.916 526.038,393.57 526.038,391.974C526.038,390.204 525.936,385.173 525.792,383.053L531.868,383.053Z" style="fill:rgb(35,31,32);fill-rule:nonzero;"/>
            <path d="M544.182,385.418C543.286,385.418 542.376,385.488 541.927,385.555C541.821,387.987 541.784,389.165 541.784,391.94C541.784,395.304 541.784,396.555 541.927,399.227L544.629,399.227C547.828,399.227 549.353,398.281 549.353,396.345C549.353,394.193 547.374,393.189 544.773,393.189L543.213,393.189L544.29,390.379L545.435,390.379C546.747,390.379 548.52,389.684 548.52,387.987C548.52,386.182 546.891,385.418 544.182,385.418ZM547.027,383.053C550.502,383.053 554.28,384.304 554.28,387.497C554.28,389.23 552.791,390.79 550.568,391.557C553.519,392.632 555.218,394.332 555.218,396.555C555.218,400.439 550.502,401.761 546.053,401.761L535.89,401.761C536.133,399.329 536.201,395.823 536.201,391.94C536.201,389.374 536.169,385.488 535.926,383.053L547.027,383.053Z" style="fill:rgb(35,31,32);fill-rule:nonzero;"/>
            <path d="M568.056,394.819C567.329,393.015 566.325,390.754 565.835,389.199C565.315,390.79 564.209,393.255 563.648,394.819C564.342,394.85 565.28,394.886 565.907,394.886C566.774,394.886 567.225,394.85 568.056,394.819ZM568.581,383.053C569.273,385.274 575.449,398.742 576.872,401.761L570.727,401.761C570.487,401.028 569.996,400.026 569.1,397.665C568.165,397.631 567.186,397.631 565.907,397.631C564.658,397.631 563.755,397.665 562.745,397.703C562.195,399.227 561.704,400.439 561.257,401.761L555.914,401.761C556.951,399.435 563.097,386.043 564.209,383.053L568.581,383.053Z" style="fill:rgb(35,31,32);fill-rule:nonzero;"/>
            <path d="M586.518,382.57C588.909,382.57 591.236,382.917 592.693,383.372L592.693,388.123C590.647,386.941 588.636,385.937 585.96,385.937C583.846,385.937 583.704,386.773 583.704,387.389C583.704,390.552 594.357,390.588 594.357,396.239C594.357,399.92 590.922,402.246 585.2,402.246C582.633,402.246 580.201,401.726 578.534,401.14L578.534,396.583C582.454,398.431 584.538,399.017 586.341,399.017C587.801,399.017 588.876,398.36 588.876,397.11C588.876,393.535 578.259,393.883 578.259,387.808C578.259,384.478 581.589,382.57 586.518,382.57Z" style="fill:rgb(35,31,32);fill-rule:nonzero;"/>
            <path d="M624.601,392.668C624.497,394.504 624.388,398.388 624.322,400.613C622.307,401.658 619.157,402.246 616.101,402.246C609.155,402.246 604.718,397.868 604.718,392.495C604.718,386.833 609.369,382.57 616.966,382.57C618.702,382.57 621.309,382.852 623.145,383.301L621.791,386.974C620.506,386.182 618.359,385.524 616.895,385.524C612.524,385.524 610.964,389.404 610.964,392.53C610.964,397.767 613.776,399.472 616.933,399.472C617.315,399.472 618.528,399.435 618.909,399.335C618.909,397.075 618.878,394.193 618.702,392.668L624.601,392.668Z" style="fill:rgb(35,31,32);fill-rule:nonzero;"/>
            <path d="M637.546,383.053C641.634,383.053 646.53,384.514 646.53,388.854C646.53,391.174 644.797,392.84 642.089,393.917C642.644,394.886 647.188,400.788 648.091,401.761L641.396,401.761C640.211,399.506 637.957,395.615 635.738,392.321C638.411,392.662 640.736,391.389 640.736,388.818C640.736,386.354 637.89,385.627 636.505,385.627C635.878,385.627 634.701,385.627 634.28,385.661C634.18,387.951 634.143,390.688 634.143,391.94C634.143,393.57 634.143,398.916 634.454,401.761L628.212,401.761C628.524,398.981 628.59,395.687 628.59,391.94C628.59,388.782 628.56,384.962 628.28,383.053L637.546,383.053Z" style="fill:rgb(35,31,32);fill-rule:nonzero;"/>
            <path d="M659.264,384.962C656.562,384.962 654.858,387.604 654.858,392.421C654.858,397.248 656.562,399.812 659.264,399.812C661.937,399.812 663.604,397.248 663.604,392.421C663.604,387.604 661.937,384.962 659.264,384.962ZM659.264,402.28C653.434,402.28 649.065,398.285 649.065,392.421C649.065,386.529 653.434,382.57 659.264,382.57C665.056,382.57 669.431,386.529 669.431,392.421C669.431,398.285 665.056,402.28 659.264,402.28Z" style="fill:rgb(35,31,32);fill-rule:nonzero;"/>
            <path d="M678.106,383.053C678.007,384.304 677.966,385.589 677.966,386.905L677.966,395.823C677.966,398.259 678.735,399.68 681.126,399.68C683.205,399.68 685.258,398.843 685.258,395.024L685.258,385.967C685.258,384.066 685.214,383.857 685.086,383.053L690.247,383.053C690.046,384.687 690.046,387.743 690.046,390.754L690.046,396.07C690.046,400.367 687.028,402.246 681.055,402.246C675.646,402.246 672.314,401.104 672.314,395.79L672.314,388.955C672.314,387.215 672.243,384.376 672.028,383.053L678.106,383.053Z" style="fill:rgb(35,31,32);fill-rule:nonzero;"/>
            <path d="M699.826,385.661C699.826,386.874 699.762,388.123 699.762,389.338C699.762,390.234 699.797,390.928 699.826,391.591C700.035,391.622 701.009,391.622 701.631,391.622C703.612,391.622 706.355,391.071 706.355,388.536C706.355,386.075 703.539,385.627 701.428,385.627C701.149,385.627 700.102,385.627 699.826,385.661ZM703.195,383.053C707.25,383.053 712.147,384.201 712.147,388.536C712.147,392.356 708.68,394.264 701.631,394.264C701.22,394.264 700.071,394.264 699.762,394.229C699.899,396.827 699.864,399.992 700.035,401.761L693.895,401.761C694.135,399.19 694.206,394.957 694.206,391.94C694.206,389.266 694.135,384.824 693.895,383.053L703.195,383.053Z" style="fill:rgb(35,31,32);fill-rule:nonzero;"/>
            <rect x="723.373" y="368.282" width="47.65" height="47.647" style="fill:rgb(14,149,96);fill-rule:nonzero;"/>
            <clipPath id="_clip1">
                <rect x="746.694" y="373.575" width="18.957" height="16.021"/>
            </clipPath>
            <g clip-path="url(#_clip1)">
                <path d="M760.375,381.155C757.425,382.876 756.525,383.014 753.33,384.933L753.487,384.58C755.162,382.749 755.897,381.979 756.997,380.365C754.038,380.518 749.76,380.873 746.694,381.548L746.858,381.22C749.638,379.868 754.794,378.525 757.425,378.183C756.782,377.281 751.553,374.451 750.259,373.903L750.404,373.575C754.366,374.015 759.617,375.875 761.906,377.281C762.874,376.964 763.86,376.939 765.651,376.784C765.651,376.784 765.385,377.866 763.434,379.204C763.922,380.502 762.755,387.689 761.795,389.596C761.751,386.588 761.487,382.791 760.375,381.155Z" style="fill:url(#_Linear2);"/>
            </g>
            <clipPath id="_clip3">
                <rect x="727.973" y="395.891" width="11.022" height="13.276"/>
            </clipPath>
            <g clip-path="url(#_clip3)">
                <path d="M738.843,406.908L738.995,406.574C737.431,405.963 735.866,405.485 734.598,404.296C734.995,403.188 735.452,402.318 736.198,401.223L736.355,400.888C735.01,401.091 733.791,401.583 732.626,401.803C731.712,400.194 731.354,397.988 730.892,395.891L730.739,396.225C730.483,398.617 730.379,400.332 730.718,402.246C729.75,402.515 728.902,402.55 728.12,402.884L727.973,403.213C729.215,403.978 730.222,404.565 731.629,405.222C732.382,406.837 733.161,407.924 734.419,409.167L734.571,408.839C734.343,407.919 734.051,407.165 734.162,406.155C735.722,406.609 737.066,406.855 738.843,406.908Z" style="fill:url(#_Linear4);"/>
            </g>
            <clipPath id="_clip5">
                <rect x="731.163" y="382.976" width="18.774" height="11.545"/>
            </clipPath>
            <g clip-path="url(#_clip5)">
                <path d="M743.188,382.976C743.188,382.976 742.561,384.095 742.057,385.578L741.937,385.578C745.604,386.066 749.071,387.557 749.937,388.07L749.789,388.4C745.98,387.731 743.97,387.802 742.554,387.932C741.137,388.065 740.848,388.244 740.848,388.244C740.032,390.027 739.554,392.95 739.357,394.02L739.206,394.354C738.51,392.681 737.506,389.338 737.506,389.338C735.589,390.366 731.163,394.521 731.163,394.521C733.601,389.655 736.065,387.431 736.065,387.431C735.215,386.583 732.994,386.144 731.369,386.075L731.52,385.751C732.538,385.453 734.637,385.325 736.046,385.254C737.712,385.206 738.716,385.301 738.716,385.301C740.197,384.12 742.41,383.093 743.188,382.976Z" style="fill:url(#_Linear6);"/>
            </g>
            <clipPath id="_clip7">
                <rect x="741.516" y="403.341" width="10.299" height="6.821"/>
            </clipPath>
            <g clip-path="url(#_clip7)">
                <path d="M747.856,403.883C747.09,404.928 746.432,405.748 745.583,406.703C744.328,407.052 742.822,406.89 741.666,406.939L741.516,407.273C742.386,407.721 743.241,407.991 744.154,408.182C743.412,408.851 742.422,409.365 741.731,409.836L741.578,410.162C743.064,409.809 745.024,409.181 746.482,408.313C747.246,408.349 747.953,408.301 748.474,408.194C748.474,408.194 748.628,407.86 748.628,407.866C748.539,407.53 748.234,407.32 748.147,406.855C749.518,405.796 750.506,404.821 751.654,403.674L751.815,403.341C750.684,404.117 749.309,405.194 747.988,405.814C747.934,405.168 747.893,404.618 747.856,403.883Z" style="fill:url(#_Linear8);"/>
            </g>
            <path d="M760.525,380.819C757.585,382.542 756.681,382.69 753.487,384.598C755.348,382.584 755.992,381.721 757.147,380.03C754.199,380.184 749.913,380.544 746.858,381.22C749.518,379.797 754.802,378.218 757.585,377.84C756.937,376.951 751.712,374.118 750.404,373.575C754.546,373.889 759.611,375.444 762.059,376.939C763.022,376.64 764.028,376.623 765.826,376.466C765.367,377.25 765.35,377.705 763.586,378.875C764.076,380.18 762.91,387.359 761.944,389.261C761.913,386.258 761.642,382.463 760.525,380.819Z" style="fill:white;fill-rule:nonzero;"/>
            <path d="M738.995,406.574C737.306,405.945 736.089,405.216 734.748,403.967C735.148,402.855 735.608,401.994 736.355,400.888C734.98,401.091 733.966,401.247 732.78,401.474C731.822,399.782 731.383,398.156 730.892,395.891C730.629,398.295 730.532,400.003 730.868,401.917C729.782,402.215 729.016,402.478 728.12,402.884C729.371,403.651 730.387,404.242 731.782,404.894C732.533,406.501 733.312,407.596 734.571,408.839C734.277,407.775 734.199,406.939 734.318,405.826C735.88,406.281 737.218,406.521 738.995,406.574Z" style="fill:white;fill-rule:nonzero;"/>
            <path d="M743.391,382.69C742.865,383.379 742.256,384.65 742.094,385.244C746.447,385.828 749.937,388.07 749.937,388.07C746.129,387.395 744.126,387.478 742.703,387.604C741.293,387.743 741.005,387.903 741.005,387.903C739.976,390.156 739.357,394.02 739.357,394.02C738.666,392.347 737.667,389.004 737.667,389.004C735.745,390.031 731.324,394.188 731.324,394.188C733.753,389.319 736.219,387.108 736.219,387.108C735.371,386.248 733.148,385.818 731.52,385.751C732.365,385.405 734.531,385.005 736.198,384.92C737.863,384.879 738.874,384.974 738.874,384.974C740.358,383.795 742.615,382.809 743.391,382.69Z" style="fill:white;fill-rule:nonzero;"/>
            <path d="M748.012,403.554C747.246,404.6 746.584,405.419 745.729,406.376C744.264,406.783 743.094,406.939 741.666,406.939C742.542,407.393 743.391,407.66 744.307,407.852C743.391,408.679 742.62,409.27 741.731,409.836C743.22,409.477 745.178,408.851 746.638,407.991C747.402,408.019 748.109,407.966 748.628,407.866C748.498,407.42 748.412,407.093 748.306,406.521C749.674,405.46 750.672,404.495 751.815,403.341C750.594,404.189 749.549,404.821 748.139,405.485C748.076,404.84 748.048,404.29 748.012,403.554Z" style="fill:white;fill-rule:nonzero;"/>
        </g>
    </g>
    <defs>
        <linearGradient id="_Linear2" x1="0" y1="0" x2="1" y2="0" gradientUnits="userSpaceOnUse" gradientTransform="matrix(2.23904e-16,-36.5662,36.5662,2.23904e-16,745.009,409.841)"><stop offset="0" style="stop-color:rgb(6,179,135);stop-opacity:1"/><stop offset="1" style="stop-color:rgb(0,167,109);stop-opacity:1"/></linearGradient>
        <linearGradient id="_Linear4" x1="0" y1="0" x2="1" y2="0" gradientUnits="userSpaceOnUse" gradientTransform="matrix(2.23993e-16,-36.5809,36.5809,2.23993e-16,726.288,409.844)"><stop offset="0" style="stop-color:rgb(6,179,135);stop-opacity:1"/><stop offset="1" style="stop-color:rgb(0,167,109);stop-opacity:1"/></linearGradient>
        <linearGradient id="_Linear6" x1="0" y1="0" x2="1" y2="0" gradientUnits="userSpaceOnUse" gradientTransform="matrix(2.23951e-16,-36.574,36.574,2.23951e-16,729.478,409.846)"><stop offset="0" style="stop-color:rgb(6,179,135);stop-opacity:1"/><stop offset="1" style="stop-color:rgb(0,167,109);stop-opacity:1"/></linearGradient>
        <linearGradient id="_Linear8" x1="0" y1="0" x2="1" y2="0" gradientUnits="userSpaceOnUse" gradientTransform="matrix(2.23874e-16,-36.5614,36.5614,2.23874e-16,739.831,409.843)"><stop offset="0" style="stop-color:rgb(6,179,135);stop-opacity:1"/><stop offset="1" style="stop-color:rgb(0,167,109);stop-opacity:1"/></linearGradient>
    </defs>
</svg>
