<?xml version="1.0" encoding="UTF-8"?>
<svg width="310px" height="100px" viewBox="0 0 310 100" version="1.1" xmlns="http://www.w3.org/2000/svg" xmlns:xlink="http://www.w3.org/1999/xlink">
    <title>Scan to Pay Acceptance Mark Hero RGB</title>
    <g id="Page-1" stroke="none" stroke-width="1" fill="none" fill-rule="evenodd">
        <g id="Scan-to-Pay-Acceptance-Mark-Hero-RGB" transform="translate(0.000000, 0.000000)" fill-rule="nonzero">
            <path d="M8.15587638,0 C3.72840063,0 0,3.72960373 0,8.15850816 L0,59.2074592 C0,63.6363636 3.72840063,67.3659674 8.15587638,67.3659674 L301.534401,67.3659674 C305.961877,67.3659674 309.690277,63.6363636 309.690277,59.2074592 L309.690277,8.15850816 C309.690277,3.72960373 305.961877,0 301.534401,0 L8.15587638,0 Z" id="Path" fill="#231F20"></path>
            <g id="XMLID_16_" transform="translate(16.544778, 13.519814)">
                <rect id="Rectangle" fill="#FF5F00" x="23.535529" y="4.42890443" width="17.476878" height="31.4685315"></rect>
                <path d="M24.7006542,20.04662 C24.7006542,13.7529138 27.7299797,7.92540793 32.3904805,4.1958042 C28.8951049,1.3986014 24.7006542,0 20.0401534,0 C8.8549515,0 0,9.09090909 0,20.04662 C0,31.2354312 9.08797654,40.0932401 20.0401534,40.0932401 C24.7006542,40.0932401 29.1281299,38.4615385 32.3904805,35.8974359 C27.7299797,32.1678322 24.7006542,26.5734266 24.7006542,20.04662 Z" id="XMLID_20_" fill="#EB001B"></path>
                <path d="M64.780961,20.04662 C64.780961,31.2354312 55.6929844,40.0932401 44.7408076,40.0932401 C40.0803068,40.0932401 35.652831,38.4615385 32.3904805,35.8974359 C37.0509813,32.1678322 40.0803068,26.5734266 40.0803068,20.04662 C40.0803068,13.5198135 37.0509813,7.92540793 32.3904805,4.1958042 C35.8858561,1.3986014 40.0803068,0 44.7408076,0 C55.9260095,0 64.780961,9.09090909 64.780961,20.04662 Z M62.9167607,32.6340326 L62.9167607,31.9347319 L63.1497857,31.9347319 L63.1497857,31.7016317 L62.4507106,31.7016317 L62.4507106,31.9347319 L62.6837356,31.9347319 L62.9167607,32.6340326 L62.9167607,32.6340326 Z M64.3149109,32.6340326 L64.3149109,31.9347319 L64.0818859,31.9347319 L63.8488608,32.4009324 L63.6158358,31.9347319 L63.3828107,31.9347319 L63.3828107,32.6340326 L63.6158358,32.6340326 L63.6158358,31.9347319 L63.8488608,32.4009324 L64.0818859,32.4009324 L64.3149109,31.9347319 L64.3149109,32.6340326 L64.3149109,32.6340326 Z" id="Shape" fill="#F79E1B"></path>
            </g>
            <g id="Group" transform="translate(113.017144, 22.377622)" fill="#FFFFFF">
                <path d="M12.3503271,8.15850816 C12.1173021,7.92540793 11.884277,7.92540793 11.4182269,7.69230769 C11.1852019,7.45920746 10.7191518,7.45920746 10.2531017,7.22610723 C9.78705166,6.99300699 9.32100158,6.99300699 8.8549515,6.99300699 C8.38890142,6.99300699 7.92285134,6.75990676 7.45680126,6.75990676 C6.52470111,6.75990676 5.82562599,6.99300699 5.35957591,7.22610723 C4.89352583,7.45920746 4.66050079,7.92540793 4.66050079,8.62470862 C4.66050079,8.85780886 4.66050079,9.09090909 4.89352583,9.32400932 C5.12655087,9.55710956 5.12655087,9.55710956 5.35957591,9.79020979 C5.59260095,10.02331 5.82562599,10.02331 6.05865103,10.02331 C6.29167607,10.02331 6.75772614,10.2564103 6.99075118,10.2564103 L8.62192646,10.4895105 C10.2531017,10.7226107 11.651252,11.1888112 12.5833521,11.8881119 C13.5154523,12.5874126 13.9815024,13.7529138 13.9815024,14.9184149 C13.9815024,15.6177156 13.7484773,16.3170163 13.5154523,17.016317 C13.2824273,17.7156177 12.8163772,18.1818182 12.1173021,18.6480186 C11.4182269,19.1142191 10.7191518,19.3473193 9.78705166,19.5804196 C8.8549515,19.8135198 7.92285134,20.04662 6.75772614,20.04662 C6.29167607,20.04662 5.82562599,20.04662 5.35957591,20.04662 C4.89352583,20.04662 4.19445071,19.8135198 3.72840063,19.8135198 C3.26235055,19.8135198 2.56327543,19.3473193 1.86420032,19.1142191 C1.1651252,18.8811189 0.699075118,18.4149184 0,18.1818182 L1.63117528,15.6177156 C1.86420032,15.8508159 2.33025039,16.0839161 2.56327543,16.3170163 C2.79630047,16.5501166 3.26235055,16.7832168 3.72840063,16.7832168 C4.19445071,17.016317 4.66050079,17.016317 5.12655087,17.2494172 C5.59260095,17.2494172 6.29167607,17.4825175 6.75772614,17.4825175 C7.92285134,17.4825175 8.8549515,17.2494172 9.32100158,17.016317 C10.0200767,16.7832168 10.2531017,16.3170163 10.2531017,15.6177156 C10.2531017,15.1515152 10.0200767,14.9184149 9.55402662,14.4522145 C9.08797654,14.2191142 8.38890142,13.986014 7.45680126,13.7529138 L5.82562599,13.5198135 C4.19445071,13.2867133 2.79630047,12.8205128 1.86420032,11.8881119 C0.932100158,11.1888112 0.466050079,10.02331 0.466050079,8.85780886 C0.466050079,8.15850816 0.699075118,7.45920746 0.932100158,6.75990676 C1.1651252,6.06060606 1.63117528,5.59440559 2.33025039,5.12820513 C2.79630047,4.66200466 3.49537559,4.42890443 4.42747575,4.1958042 C5.35957591,3.96270396 6.05865103,3.72960373 7.22377622,3.72960373 C8.38890142,3.72960373 9.55402662,3.96270396 10.7191518,4.1958042 C11.884277,4.42890443 12.8163772,4.8951049 13.5154523,5.36130536 L12.3503271,8.15850816 Z" id="Path"></path>
                <path d="M24.9336792,3.72960373 C26.0988044,3.72960373 27.2639296,3.96270396 28.1960298,4.42890443 C29.1281299,4.8951049 30.0602301,5.36130536 30.7593052,6.29370629 L28.6620799,8.62470862 C28.1960298,8.15850816 27.4969547,7.69230769 27.0309046,7.45920746 C26.3318295,7.22610723 25.8657794,6.99300699 24.9336792,6.99300699 C24.2346041,6.99300699 23.768554,7.22610723 23.0694789,7.45920746 C22.6034288,7.69230769 21.9043537,8.15850816 21.6713287,8.39160839 C21.2052786,8.85780886 20.9722536,9.32400932 20.7392285,10.02331 C20.5062035,10.7226107 20.5062035,11.4219114 20.5062035,12.1212121 C20.5062035,12.8205128 20.5062035,13.5198135 20.7392285,14.2191142 C20.9722536,14.9184149 21.2052786,15.3846154 21.6713287,15.8508159 C22.1373788,16.3170163 22.6034288,16.5501166 23.0694789,16.7832168 C23.535529,17.016317 24.2346041,17.2494172 24.9336792,17.2494172 C25.6327543,17.2494172 26.3318295,17.016317 27.0309046,16.7832168 C27.7299797,16.5501166 28.1960298,16.0839161 28.6620799,15.6177156 L30.7593052,17.9487179 C30.0602301,18.8811189 29.1281299,19.3473193 28.1960298,19.8135198 C27.2639296,20.2797203 26.0988044,20.5128205 24.9336792,20.5128205 C23.768554,20.5128205 22.6034288,20.2797203 21.6713287,19.8135198 C20.7392285,19.3473193 19.8071284,18.8811189 19.1080532,18.1818182 C18.4089781,17.4825175 17.942928,16.5501166 17.476878,15.6177156 C17.0108279,14.6853147 16.7778028,13.5198135 16.7778028,12.3543124 C16.7778028,11.1888112 17.0108279,10.02331 17.476878,9.09090909 C17.942928,8.15850816 18.4089781,7.22610723 19.1080532,6.52680653 C19.8071284,5.82750583 20.7392285,5.12820513 21.6713287,4.8951049 C22.6034288,3.96270396 23.768554,3.72960373 24.9336792,3.72960373 Z" id="Path"></path>
                <path d="M49.1682833,19.8135198 L45.6729077,19.8135198 L45.6729077,17.9487179 C45.2068577,18.6480186 44.5077825,19.1142191 43.5756824,19.5804196 C42.8766073,20.04662 41.7114821,20.2797203 40.7793819,20.2797203 C39.6142567,20.2797203 38.6821566,20.04662 37.7500564,19.5804196 C36.8179562,19.1142191 35.8858561,18.6480186 35.186781,17.9487179 C34.4877058,17.2494172 34.0216558,16.3170163 33.5556057,15.3846154 C33.0895556,14.4522145 32.8565306,13.2867133 32.8565306,12.1212121 C32.8565306,10.955711 33.0895556,9.79020979 33.5556057,8.85780886 C34.0216558,7.92540793 34.4877058,6.99300699 35.186781,6.29370629 C35.8858561,5.59440559 36.8179562,4.8951049 37.7500564,4.66200466 C38.6821566,4.1958042 39.6142567,3.96270396 40.7793819,3.96270396 C41.9445071,3.96270396 42.8766073,4.1958042 43.5756824,4.66200466 C44.2747575,5.12820513 44.9738326,5.59440559 45.6729077,6.29370629 L45.6729077,4.42890443 L49.1682833,4.42890443 L49.1682833,19.8135198 Z M41.478457,6.99300699 C40.7793819,6.99300699 40.0803068,7.22610723 39.6142567,7.45920746 C39.1482066,7.69230769 38.4491315,8.15850816 38.2161065,8.62470862 C37.7500564,9.09090909 37.5170314,9.55710956 37.2840063,10.2564103 C37.0509813,10.955711 37.0509813,11.4219114 37.0509813,12.1212121 C37.0509813,12.8205128 37.0509813,13.5198135 37.2840063,13.986014 C37.5170314,14.6853147 37.7500564,15.1515152 38.2161065,15.6177156 C38.6821566,16.0839161 39.1482066,16.3170163 39.6142567,16.7832168 C40.0803068,17.016317 40.7793819,17.2494172 41.478457,17.2494172 C42.1775321,17.2494172 42.8766073,17.016317 43.3426573,16.7832168 C43.8087074,16.5501166 44.5077825,16.0839161 44.7408076,15.8508159 C45.2068577,15.3846154 45.4398827,14.9184149 45.6729077,14.2191142 C45.9059328,13.5198135 45.9059328,13.0536131 45.9059328,12.1212121 C45.9059328,11.4219114 45.9059328,10.7226107 45.6729077,10.02331 C45.4398827,9.32400932 45.2068577,8.85780886 44.7408076,8.39160839 C44.2747575,7.92540793 43.8087074,7.69230769 43.3426573,7.45920746 C42.6435822,6.99300699 42.1775321,6.99300699 41.478457,6.99300699 Z" id="Shape"></path>
                <path d="M62.4507106,3.72960373 C63.3828107,3.72960373 64.3149109,3.96270396 65.013986,4.1958042 C65.7130611,4.42890443 66.4121363,4.8951049 67.1112114,5.36130536 C67.5772614,5.82750583 68.0433115,6.52680653 68.5093616,7.22610723 C68.7423866,7.92540793 68.9754117,8.85780886 68.9754117,9.79020979 L68.9754117,19.5804196 L65.4800361,19.5804196 L65.4800361,10.955711 C65.4800361,9.55710956 65.2470111,8.62470862 64.5479359,7.92540793 C63.8488608,7.22610723 62.9167607,6.75990676 61.9846605,6.75990676 C61.5186104,6.75990676 60.8195353,6.75990676 60.3534852,6.99300699 C59.8874351,7.22610723 59.4213851,7.45920746 59.18836,7.69230769 C58.7223099,7.92540793 58.4892849,8.39160839 58.2562599,9.09090909 C58.0232348,9.55710956 58.0232348,10.2564103 58.0232348,10.955711 L58.0232348,19.5804196 L54.2948342,19.5804196 L54.2948342,3.96270396 L57.7902098,3.96270396 L57.7902098,5.82750583 C58.0232348,5.36130536 58.4892849,4.8951049 58.7223099,4.66200466 C59.18836,4.42890443 59.4213851,4.1958042 59.8874351,3.96270396 C60.3534852,3.72960373 60.8195353,3.72960373 61.0525603,3.4965035 C61.5186104,3.72960373 61.9846605,3.72960373 62.4507106,3.72960373 Z" id="Path"></path>
                <path d="M92.7439657,7.22610723 L86.6853147,7.22610723 L86.6853147,13.986014 C86.6853147,14.4522145 86.6853147,14.9184149 86.9183397,15.3846154 C87.1513648,15.8508159 87.1513648,16.0839161 87.3843898,16.3170163 C87.6174148,16.5501166 87.8504399,16.7832168 88.0834649,16.7832168 C88.31649,16.7832168 88.78254,17.016317 89.0155651,17.016317 C89.4816152,17.016317 90.1806903,17.016317 90.6467404,16.7832168 C91.1127904,16.5501166 91.8118656,16.3170163 92.2779156,16.0839161 L93.6760659,18.8811189 C92.9769908,19.3473193 92.2779156,19.5804196 91.5788405,20.04662 C90.8797654,20.2797203 89.9476652,20.5128205 89.0155651,20.5128205 C87.1513648,20.5128205 85.9862396,20.04662 84.8211144,19.1142191 C83.8890142,18.1818182 83.4229641,16.5501166 83.4229641,14.4522145 L83.4229641,7.69230769 L80.3936386,7.69230769 L80.3936386,4.66200466 L83.4229641,4.66200466 L83.4229641,0 L86.9183397,0 L86.9183397,4.66200466 L92.9769908,4.66200466 L92.9769908,7.22610723 L92.7439657,7.22610723 Z" id="Path"></path>
                <path d="M103.696143,3.72960373 C104.861268,3.72960373 106.026393,3.96270396 106.958493,4.42890443 C107.890593,4.8951049 108.822693,5.36130536 109.521769,6.06060606 C110.220844,6.75990676 110.919919,7.69230769 111.385969,8.62470862 C111.852019,9.55710956 112.085044,10.7226107 112.085044,11.8881119 C112.085044,13.0536131 111.852019,14.2191142 111.385969,15.1515152 C110.919919,16.0839161 110.453869,17.016317 109.521769,17.7156177 C108.822693,18.4149184 107.890593,19.1142191 106.958493,19.3473193 C106.026393,19.8135198 104.861268,20.04662 103.696143,20.04662 C102.531017,20.04662 101.365892,19.8135198 100.433792,19.3473193 C99.5016919,18.8811189 98.5695917,18.4149184 97.8705166,17.7156177 C97.1714415,17.016317 96.4723663,16.0839161 96.0063163,15.1515152 C95.5402662,14.2191142 95.3072411,13.0536131 95.3072411,11.8881119 C95.3072411,10.7226107 95.5402662,9.55710956 96.0063163,8.62470862 C96.4723663,7.69230769 96.9384164,6.75990676 97.8705166,6.06060606 C98.5695917,5.36130536 99.5016919,4.66200466 100.433792,4.42890443 C101.365892,3.96270396 102.531017,3.72960373 103.696143,3.72960373 Z M103.696143,6.99300699 C102.997067,6.99300699 102.297992,7.22610723 101.831942,7.45920746 C101.132867,7.69230769 100.666817,8.15850816 100.200767,8.39160839 C99.7347169,8.85780886 99.5016919,9.32400932 99.2686668,10.02331 C99.0356418,10.7226107 98.8026167,11.4219114 98.8026167,12.1212121 C98.8026167,12.8205128 99.0356418,13.5198135 99.2686668,14.2191142 C99.5016919,14.9184149 99.9677419,15.3846154 100.200767,15.8508159 C100.666817,16.3170163 101.132867,16.5501166 101.831942,16.7832168 C102.531017,17.016317 102.997067,17.2494172 103.696143,17.2494172 C104.395218,17.2494172 105.094293,17.016317 105.560343,16.7832168 C106.259418,16.5501166 106.725468,16.0839161 107.191518,15.8508159 C107.657568,15.3846154 107.890593,14.9184149 108.123618,14.2191142 C108.356643,13.5198135 108.589668,12.8205128 108.589668,12.1212121 C108.589668,11.4219114 108.356643,10.7226107 108.123618,10.02331 C107.890593,9.32400932 107.424543,8.85780886 107.191518,8.39160839 C106.725468,7.92540793 106.259418,7.69230769 105.560343,7.45920746 C105.094293,6.99300699 104.395218,6.99300699 103.696143,6.99300699 Z" id="Shape"></path>
                <path d="M132.824273,3.72960373 C133.989398,3.72960373 134.921498,3.96270396 135.853598,4.42890443 C136.785698,4.8951049 137.717798,5.36130536 138.416873,6.06060606 C139.115949,6.75990676 139.581999,7.69230769 140.048049,8.62470862 C140.514099,9.55710956 140.747124,10.7226107 140.747124,11.8881119 C140.747124,13.0536131 140.514099,14.2191142 140.048049,15.1515152 C139.581999,16.0839161 139.115949,17.016317 138.416873,17.7156177 C137.717798,18.4149184 136.785698,19.1142191 135.853598,19.3473193 C134.921498,19.8135198 133.989398,20.04662 132.824273,20.04662 C131.659147,20.04662 130.727047,19.8135198 130.027972,19.3473193 C129.328897,18.8811189 128.629822,18.4149184 127.930747,17.7156177 L127.930747,26.1072261 L124.435371,26.1072261 L124.435371,3.96270396 L127.930747,3.96270396 L127.930747,5.82750583 C128.396797,5.12820513 129.095872,4.66200466 130.027972,4.1958042 C130.727047,3.96270396 131.659147,3.72960373 132.824273,3.72960373 Z M132.358222,6.99300699 C131.659147,6.99300699 130.960072,7.22610723 130.494022,7.45920746 C130.027972,7.69230769 129.328897,8.15850816 129.095872,8.39160839 C128.629822,8.85780886 128.396797,9.32400932 128.163772,10.02331 C127.930747,10.7226107 127.930747,11.1888112 127.930747,12.1212121 C127.930747,12.8205128 127.930747,13.5198135 128.163772,14.2191142 C128.396797,14.9184149 128.629822,15.3846154 129.095872,15.8508159 C129.561922,16.3170163 130.027972,16.5501166 130.494022,16.7832168 C130.960072,17.016317 131.659147,17.2494172 132.358222,17.2494172 C133.057298,17.2494172 133.756373,17.016317 134.222423,16.7832168 C134.921498,16.5501166 135.387548,16.0839161 135.620573,15.6177156 C136.086623,15.1515152 136.319648,14.6853147 136.552673,13.986014 C136.785698,13.2867133 136.785698,12.8205128 136.785698,12.1212121 C136.785698,11.4219114 136.785698,10.7226107 136.552673,10.2564103 C136.319648,9.55710956 136.086623,9.09090909 135.620573,8.62470862 C135.154523,8.15850816 134.688473,7.92540793 134.222423,7.45920746 C133.756373,6.99300699 133.057298,6.99300699 132.358222,6.99300699 Z" id="Shape"></path>
                <path d="M159.389127,19.8135198 L155.893751,19.8135198 L155.893751,17.9487179 C155.427701,18.6480186 154.728626,19.1142191 153.796526,19.5804196 C153.097451,20.04662 151.932326,20.2797203 151.000226,20.2797203 C149.8351,20.2797203 148.903,20.04662 147.9709,19.5804196 C147.0388,19.1142191 146.1067,18.6480186 145.407625,17.9487179 C144.70855,17.2494172 144.242499,16.3170163 143.776449,15.3846154 C143.310399,14.4522145 143.077374,13.2867133 143.077374,12.1212121 C143.077374,10.955711 143.310399,9.79020979 143.776449,8.85780886 C144.242499,7.92540793 144.70855,6.99300699 145.407625,6.29370629 C146.1067,5.59440559 147.0388,4.8951049 147.9709,4.66200466 C148.903,4.1958042 149.8351,3.96270396 151.000226,3.96270396 C152.165351,3.96270396 153.097451,4.1958042 153.796526,4.66200466 C154.495601,5.12820513 155.194676,5.59440559 155.893751,6.29370629 L155.893751,4.42890443 L159.389127,4.42890443 L159.389127,19.8135198 Z M151.466276,6.99300699 C150.767201,6.99300699 150.068125,7.22610723 149.602075,7.45920746 C149.136025,7.69230769 148.43695,8.15850816 148.203925,8.62470862 C147.737875,9.09090909 147.50485,9.55710956 147.271825,10.2564103 C147.0388,10.955711 147.0388,11.4219114 147.0388,12.1212121 C147.0388,12.8205128 147.0388,13.5198135 147.271825,13.986014 C147.50485,14.6853147 147.737875,15.1515152 148.203925,15.6177156 C148.669975,16.0839161 149.136025,16.3170163 149.602075,16.7832168 C150.068125,17.016317 150.767201,17.2494172 151.466276,17.2494172 C152.165351,17.2494172 152.864426,17.016317 153.330476,16.7832168 C153.796526,16.5501166 154.495601,16.0839161 154.728626,15.8508159 C155.194676,15.3846154 155.427701,14.9184149 155.660726,14.2191142 C155.893751,13.5198135 155.893751,13.0536131 155.893751,12.1212121 C155.893751,11.4219114 155.893751,10.7226107 155.660726,10.02331 C155.427701,9.32400932 155.194676,8.85780886 154.728626,8.39160839 C154.262576,7.92540793 153.796526,7.69230769 153.330476,7.45920746 C152.864426,6.99300699 152.165351,6.99300699 151.466276,6.99300699 Z" id="Shape"></path>
                <polygon id="Path" points="167.078953 26.3403263 163.350553 26.3403263 168.943154 16.5501166 161.952402 4.1958042 165.680803 4.1958042 170.574329 13.0536131 175.467855 4.1958042 179.196255 4.1958042"></polygon>
            </g>
            <g id="Group" transform="translate(19.108053, 77.855478)" fill="#231F20">
                <polygon id="Path" points="14.2145274 15.6177156 17.476878 6.06060606 19.5741033 6.06060606 15.3796526 17.7156177 13.0494022 17.7156177 9.78705166 8.15850816 6.52470111 17.7156177 4.19445071 17.7156177 0 6.06060606 2.09722536 6.06060606 5.35957591 15.6177156 8.62192646 6.06060606 10.9521769 6.06060606"></polygon>
                <path d="M27.2639296,5.82750583 C28.1960298,5.82750583 28.8951049,6.06060606 29.8272051,6.29370629 C30.5262802,6.52680653 31.2253553,6.99300699 31.6914054,7.45920746 C32.1574554,7.92540793 32.6235055,8.62470862 33.0895556,9.32400932 C33.3225806,10.02331 33.5556057,10.955711 33.5556057,11.6550117 C33.5556057,12.5874126 33.3225806,13.2867133 33.0895556,13.986014 C32.8565306,14.6853147 32.3904805,15.3846154 31.6914054,15.8508159 C31.2253553,16.3170163 30.5262802,16.7832168 29.8272051,17.016317 C29.1281299,17.2494172 28.1960298,17.4825175 27.2639296,17.4825175 C26.3318295,17.4825175 25.6327543,17.2494172 24.9336792,17.016317 C24.2346041,16.7832168 23.535529,16.3170163 23.0694789,15.8508159 C22.6034288,15.3846154 22.1373788,14.6853147 21.6713287,13.986014 C21.4383036,13.2867133 21.2052786,12.3543124 21.2052786,11.6550117 C21.2052786,10.7226107 21.4383036,10.02331 21.6713287,9.32400932 C21.9043537,8.62470862 22.3704038,7.92540793 23.0694789,7.45920746 C23.535529,6.99300699 24.2346041,6.52680653 24.9336792,6.29370629 C25.6327543,6.06060606 26.3318295,5.82750583 27.2639296,5.82750583 Z M27.2639296,7.92540793 C26.5648545,7.92540793 26.0988044,7.92540793 25.6327543,8.15850816 C25.1667043,8.39160839 24.7006542,8.62470862 24.2346041,9.09090909 C23.768554,9.55710956 23.535529,9.79020979 23.3025039,10.4895105 C23.0694789,10.955711 23.0694789,11.6550117 23.0694789,12.1212121 C23.0694789,12.5874126 23.0694789,13.2867133 23.3025039,13.7529138 C23.535529,14.2191142 23.768554,14.6853147 24.2346041,15.1515152 C24.7006542,15.6177156 24.9336792,15.8508159 25.6327543,16.0839161 C26.0988044,16.3170163 26.5648545,16.3170163 27.2639296,16.3170163 C27.7299797,16.3170163 28.4290548,16.3170163 28.8951049,16.0839161 C29.361155,15.8508159 29.8272051,15.6177156 30.2932551,15.1515152 C30.7593052,14.6853147 30.9923303,14.4522145 31.2253553,13.7529138 C31.4583803,13.2867133 31.4583803,12.5874126 31.4583803,12.1212121 C31.4583803,11.6550117 31.4583803,10.955711 31.2253553,10.4895105 C30.9923303,10.02331 30.7593052,9.55710956 30.2932551,9.09090909 C29.8272051,8.62470862 29.59418,8.39160839 28.8951049,8.15850816 C28.4290548,7.92540793 27.7299797,7.92540793 27.2639296,7.92540793 Z" id="Shape"></path>
                <path d="M41.9445071,5.82750583 C42.4105572,5.82750583 42.6435822,5.82750583 43.1096323,5.82750583 C43.3426573,5.82750583 43.8087074,6.06060606 44.0417325,6.06060606 L43.5756824,7.92540793 C43.3426573,8.15850816 42.8766073,7.92540793 42.6435822,7.92540793 C42.1775321,7.92540793 41.9445071,7.92540793 41.7114821,7.92540793 C41.245432,7.92540793 40.7793819,7.92540793 40.5463569,8.15850816 C40.0803068,8.39160839 39.8472818,8.62470862 39.6142567,8.85780886 C39.3812317,9.09090909 39.1482066,9.55710956 38.9151816,10.02331 C38.6821566,10.4895105 38.6821566,10.955711 38.6821566,11.4219114 L38.6821566,17.9487179 L36.5849312,17.9487179 L36.5849312,6.29370629 L38.4491315,6.29370629 L38.4491315,7.92540793 C38.9151816,7.45920746 39.3812317,6.99300699 39.8472818,6.52680653 C40.5463569,6.06060606 41.245432,5.82750583 41.9445071,5.82750583 Z" id="Path"></path>
                <polygon id="Path" points="48.4692082 10.7226107 50.1003835 10.7226107 54.5278592 6.06060606 57.0911347 6.06060606 51.9645838 11.6550117 57.3241597 17.7156177 54.7608843 17.7156177 50.1003835 12.5874126 48.4692082 12.5874126 48.4692082 17.7156177 46.3719829 17.7156177 46.3719829 0 48.4692082 0 48.4692082 10.7226107"></polygon>
                <path d="M67.1112114,8.85780886 C66.8781863,8.62470862 66.6451613,8.62470862 66.4121363,8.39160839 C66.1791112,8.15850816 65.9460862,8.15850816 65.4800361,7.92540793 C65.2470111,7.92540793 64.780961,7.69230769 64.5479359,7.69230769 C64.0818859,7.69230769 63.8488608,7.69230769 63.3828107,7.69230769 C62.6837356,7.69230769 61.9846605,7.92540793 61.5186104,8.15850816 C61.0525603,8.39160839 60.8195353,8.85780886 60.8195353,9.32400932 C60.8195353,9.79020979 61.0525603,10.02331 61.5186104,10.2564103 C61.9846605,10.4895105 62.4507106,10.7226107 63.1497857,10.7226107 L64.5479359,10.955711 C65.2470111,10.955711 65.7130611,11.1888112 66.1791112,11.4219114 C66.6451613,11.6550117 67.1112114,11.8881119 67.3442364,12.1212121 C67.5772614,12.3543124 68.0433115,12.8205128 68.0433115,13.0536131 C68.2763366,13.5198135 68.2763366,13.7529138 68.2763366,14.2191142 C68.2763366,14.6853147 68.0433115,15.3846154 67.8102865,15.6177156 C67.5772614,16.0839161 67.1112114,16.5501166 66.8781863,16.7832168 C66.4121363,17.016317 65.9460862,17.2494172 65.2470111,17.4825175 C64.5479359,17.7156177 63.8488608,17.7156177 63.1497857,17.7156177 C62.6837356,17.7156177 62.4507106,17.7156177 61.9846605,17.7156177 C61.5186104,17.7156177 61.0525603,17.4825175 60.8195353,17.4825175 C60.3534852,17.4825175 59.8874351,17.2494172 59.6544101,17.016317 C59.18836,16.7832168 58.7223099,16.5501166 58.4892849,16.3170163 L59.4213851,14.9184149 C59.6544101,15.1515152 59.8874351,15.1515152 60.1204602,15.3846154 C60.3534852,15.6177156 60.5865103,15.6177156 61.0525603,15.8508159 C61.2855854,15.8508159 61.7516355,16.0839161 62.2176855,16.0839161 C62.6837356,16.0839161 63.1497857,16.0839161 63.6158358,16.0839161 C64.5479359,16.0839161 65.2470111,15.8508159 65.9460862,15.6177156 C66.4121363,15.3846154 66.8781863,14.9184149 66.8781863,14.2191142 C66.8781863,13.2867133 66.1791112,12.8205128 64.5479359,12.5874126 L63.1497857,12.3543124 C61.7516355,12.1212121 60.8195353,11.8881119 60.1204602,11.1888112 C59.4213851,10.7226107 59.18836,10.02331 59.18836,9.09090909 C59.18836,8.62470862 59.18836,7.92540793 59.4213851,7.69230769 C59.6544101,7.22610723 59.8874351,6.75990676 60.3534852,6.52680653 C60.8195353,6.29370629 61.2855854,6.06060606 61.7516355,5.82750583 C62.2176855,5.59440559 62.9167607,5.59440559 63.6158358,5.59440559 C64.5479359,5.59440559 65.4800361,5.59440559 66.1791112,5.82750583 C66.8781863,6.06060606 67.5772614,6.29370629 68.2763366,6.75990676 L67.1112114,8.85780886 Z" id="Path"></path>
                <polygon id="Path" points="90.4137153 15.6177156 93.6760659 6.06060606 95.7732912 6.06060606 91.5788405 17.7156177 89.2485901 17.7156177 85.9862396 8.15850816 82.723889 17.7156177 80.3936386 17.7156177 76.1991879 6.06060606 78.2964133 6.06060606 81.5587638 15.6177156 84.8211144 6.06060606 87.1513648 6.06060606"></polygon>
                <path d="M99.0356418,0.699300699 C99.2686668,0.699300699 99.5016919,0.699300699 99.5016919,0.699300699 C99.7347169,0.699300699 99.7347169,0.932400932 99.9677419,0.932400932 C100.200767,1.16550117 100.200767,1.16550117 100.200767,1.3986014 C100.200767,1.63170163 100.200767,1.86480186 100.200767,1.86480186 C100.200767,2.0979021 100.200767,2.33100233 100.200767,2.33100233 C100.200767,2.56410256 99.9677419,2.56410256 99.9677419,2.7972028 C99.7347169,3.03030303 99.7347169,3.03030303 99.5016919,3.03030303 C99.2686668,3.03030303 99.0356418,3.03030303 99.0356418,3.03030303 C98.8026167,3.03030303 98.5695917,3.03030303 98.5695917,3.03030303 C98.3365667,3.03030303 98.3365667,2.7972028 98.1035416,2.7972028 C97.8705166,2.56410256 97.8705166,2.56410256 97.8705166,2.33100233 C97.8705166,2.0979021 97.8705166,1.86480186 97.8705166,1.86480186 C97.8705166,1.63170163 97.8705166,1.3986014 97.8705166,1.3986014 C97.8705166,1.16550117 98.1035416,1.16550117 98.1035416,0.932400932 C98.3365667,0.699300699 98.3365667,0.699300699 98.5695917,0.699300699 C98.8026167,0.699300699 98.8026167,0.699300699 99.0356418,0.699300699 Z M100.200767,17.7156177 L98.1035416,17.7156177 L98.1035416,6.06060606 L100.200767,6.06060606 L100.200767,17.7156177 Z" id="Shape"></path>
                <path d="M111.852019,7.92540793 L106.958493,7.92540793 L106.958493,13.5198135 C106.958493,13.986014 106.958493,14.4522145 107.191518,14.6853147 C107.191518,14.9184149 107.424543,15.1515152 107.657568,15.3846154 C107.890593,15.6177156 108.123618,15.8508159 108.356643,15.8508159 C108.589668,15.8508159 108.822693,16.0839161 109.288744,16.0839161 C109.754794,16.0839161 110.220844,16.0839161 110.453869,15.8508159 C110.919919,15.6177156 111.152944,15.6177156 111.618994,15.3846154 L112.551094,16.7832168 C112.085044,17.016317 111.618994,17.4825175 110.919919,17.7156177 C110.453869,17.9487179 109.754794,17.9487179 109.055718,17.9487179 C108.356643,17.9487179 107.890593,17.9487179 107.424543,17.7156177 C106.958493,17.4825175 106.492443,17.2494172 106.259418,17.016317 C106.026393,16.7832168 105.560343,16.3170163 105.560343,15.6177156 C105.327318,15.1515152 105.327318,14.4522145 105.327318,13.7529138 L105.327318,7.92540793 L102.764042,7.92540793 L102.764042,6.06060606 L105.327318,6.06060606 L105.327318,2.33100233 L107.424543,2.33100233 L107.424543,6.06060606 L112.318069,6.06060606 L112.318069,7.92540793 L111.852019,7.92540793 Z" id="Path"></path>
                <path d="M116.97857,7.69230769 C117.211595,7.45920746 117.44462,6.99300699 117.677645,6.75990676 C117.91067,6.52680653 118.37672,6.29370629 118.609745,6.29370629 C118.84277,6.06060606 119.30882,6.06060606 119.541845,6.06060606 C120.007895,6.06060606 120.24092,6.06060606 120.473945,6.06060606 C121.173021,6.06060606 121.872096,6.06060606 122.338146,6.29370629 C123.037221,6.52680653 123.503271,6.75990676 123.969321,7.22610723 C124.435371,7.69230769 124.668396,8.15850816 124.901421,8.62470862 C125.134446,9.09090909 125.367471,9.79020979 125.367471,10.4895105 L125.367471,17.7156177 L123.270246,17.7156177 L123.270246,11.1888112 C123.270246,10.02331 123.037221,9.32400932 122.338146,8.62470862 C121.872096,7.92540793 120.939995,7.69230769 120.007895,7.69230769 C119.541845,7.69230769 119.075795,7.69230769 118.609745,7.92540793 C118.143695,8.15850816 117.91067,8.39160839 117.44462,8.62470862 C117.211595,8.85780886 116.97857,9.32400932 116.745545,9.79020979 C116.51252,10.2564103 116.51252,10.7226107 116.51252,11.1888112 L116.51252,17.7156177 L114.415294,17.7156177 L114.415294,0 L116.51252,0 L116.51252,7.69230769 L116.97857,7.69230769 Z" id="Path"></path>
                <path d="M150.068125,5.82750583 C150.767201,5.82750583 151.466276,5.82750583 151.932326,6.06060606 C152.631401,6.29370629 153.097451,6.52680653 153.563501,6.99300699 C154.029551,7.45920746 154.262576,7.92540793 154.495601,8.39160839 C154.728626,8.85780886 154.961651,9.55710956 154.961651,10.2564103 L154.961651,17.4825175 L152.864426,17.4825175 L152.864426,10.955711 C152.864426,9.79020979 152.631401,9.09090909 151.932326,8.39160839 C151.466276,7.69230769 150.534176,7.45920746 149.602075,7.45920746 C149.136025,7.45920746 148.669975,7.45920746 148.203925,7.69230769 C147.737875,7.92540793 147.50485,8.15850816 147.0388,8.39160839 C146.805775,8.62470862 146.57275,9.09090909 146.339725,9.55710956 C146.1067,10.02331 146.1067,10.4895105 146.1067,10.955711 L146.1067,17.4825175 L144.009474,17.4825175 L144.009474,10.955711 C144.009474,9.79020979 143.776449,9.09090909 143.077374,8.39160839 C142.611324,7.69230769 141.679224,7.45920746 140.747124,7.45920746 C140.281074,7.45920746 139.815024,7.45920746 139.348974,7.69230769 C138.882924,7.92540793 138.649898,8.15850816 138.183848,8.39160839 C137.950823,8.62470862 137.717798,9.09090909 137.484773,9.55710956 C137.251748,10.02331 137.251748,10.4895105 137.251748,10.955711 L137.251748,17.4825175 L135.154523,17.4825175 L135.154523,5.82750583 L137.251748,5.82750583 L137.251748,7.45920746 C137.484773,7.22610723 137.717798,6.75990676 137.950823,6.52680653 C138.183848,6.29370629 138.649898,6.06060606 138.882924,6.06060606 C139.115949,5.82750583 139.581999,5.82750583 139.815024,5.82750583 C140.281074,5.82750583 140.514099,5.82750583 140.747124,5.82750583 C141.679224,5.82750583 142.611324,6.06060606 143.310399,6.52680653 C144.009474,6.99300699 144.70855,7.45920746 144.941575,8.15850816 C145.1746,7.69230769 145.407625,7.45920746 145.873675,6.99300699 C146.1067,6.75990676 146.57275,6.52680653 147.0388,6.29370629 C147.50485,6.06060606 147.737875,6.06060606 148.203925,5.82750583 C149.36905,6.06060606 149.8351,5.82750583 150.068125,5.82750583 Z" id="Path"></path>
                <path d="M169.875254,17.7156177 L167.778028,17.7156177 L167.778028,16.0839161 C167.311978,16.5501166 166.845928,17.016317 166.146853,17.4825175 C165.447778,17.7156177 164.748703,17.9487179 163.816603,17.9487179 C162.884503,17.9487179 162.185427,17.7156177 161.486352,17.4825175 C160.787277,17.2494172 160.088202,16.7832168 159.622152,16.3170163 C159.156102,15.8508159 158.690052,15.1515152 158.457027,14.4522145 C158.224002,13.7529138 157.990977,12.8205128 157.990977,12.1212121 C157.990977,11.4219114 158.224002,10.4895105 158.457027,9.79020979 C158.690052,9.09090909 159.156102,8.39160839 159.622152,7.92540793 C160.088202,7.45920746 160.787277,6.99300699 161.486352,6.75990676 C162.185427,6.52680653 162.884503,6.29370629 163.816603,6.29370629 C164.748703,6.29370629 165.447778,6.52680653 166.146853,6.75990676 C166.845928,6.99300699 167.311978,7.45920746 167.778028,8.15850816 L167.778028,6.52680653 L169.875254,6.52680653 L169.875254,17.7156177 Z M164.049628,7.92540793 C163.350553,7.92540793 162.884503,7.92540793 162.418453,8.15850816 C161.952402,8.39160839 161.486352,8.62470862 161.253327,9.09090909 C160.787277,9.55710956 160.554252,10.02331 160.554252,10.4895105 C160.321227,10.955711 160.321227,11.4219114 160.321227,12.1212121 C160.321227,12.8205128 160.321227,13.2867133 160.554252,13.7529138 C160.787277,14.2191142 161.020302,14.6853147 161.486352,15.1515152 C161.952402,15.6177156 162.185427,15.8508159 162.651478,16.0839161 C163.117528,16.3170163 163.583578,16.3170163 164.282653,16.3170163 C164.981728,16.3170163 165.447778,16.3170163 165.913828,16.0839161 C166.379878,15.8508159 166.845928,15.6177156 167.078953,15.1515152 C167.545003,14.6853147 167.778028,14.2191142 168.011053,13.7529138 C168.244079,13.2867133 168.244079,12.5874126 168.244079,12.1212121 C168.244079,11.6550117 168.244079,10.955711 168.011053,10.4895105 C167.778028,10.02331 167.545003,9.55710956 167.078953,9.09090909 C166.612903,8.62470862 166.379878,8.39160839 165.913828,8.15850816 C165.447778,7.92540793 164.515678,7.92540793 164.049628,7.92540793 Z" id="Shape"></path>
                <path d="M181.759531,8.85780886 C181.526506,8.62470862 181.293481,8.62470862 181.060456,8.39160839 C180.827431,8.15850816 180.594406,8.15850816 180.128356,7.92540793 C179.89533,7.92540793 179.42928,7.69230769 179.196255,7.69230769 C178.730205,7.69230769 178.49718,7.69230769 178.03113,7.69230769 C177.332055,7.69230769 176.63298,7.92540793 176.16693,8.15850816 C175.70088,8.39160839 175.467855,8.85780886 175.467855,9.32400932 C175.467855,9.79020979 175.70088,10.02331 176.16693,10.2564103 C176.63298,10.4895105 177.09903,10.7226107 177.798105,10.7226107 L179.196255,10.955711 C179.89533,10.955711 180.361381,11.1888112 180.827431,11.4219114 C181.293481,11.6550117 181.759531,11.8881119 181.992556,12.1212121 C182.225581,12.3543124 182.691631,12.8205128 182.691631,13.0536131 C182.924656,13.5198135 182.924656,13.7529138 182.924656,14.2191142 C182.924656,14.6853147 182.691631,15.3846154 182.458606,15.6177156 C182.225581,16.0839161 181.759531,16.5501166 181.526506,16.7832168 C181.060456,17.016317 180.594406,17.2494172 179.89533,17.4825175 C179.196255,17.7156177 178.49718,17.7156177 177.798105,17.7156177 C177.332055,17.7156177 177.09903,17.7156177 176.63298,17.7156177 C176.16693,17.7156177 175.70088,17.4825175 175.467855,17.4825175 C175.001805,17.4825175 174.535755,17.2494172 174.30273,17.016317 C173.836679,16.7832168 173.370629,16.5501166 173.137604,16.3170163 L174.069704,14.9184149 C174.30273,15.1515152 174.535755,15.1515152 174.76878,15.3846154 C175.001805,15.6177156 175.23483,15.6177156 175.70088,15.8508159 C175.933905,15.8508159 176.399955,16.0839161 176.866005,16.0839161 C177.332055,16.0839161 177.798105,16.0839161 178.264155,16.0839161 C179.196255,16.0839161 179.89533,15.8508159 180.594406,15.6177156 C181.060456,15.3846154 181.526506,14.9184149 181.526506,14.2191142 C181.526506,13.2867133 180.827431,12.8205128 179.196255,12.5874126 L177.798105,12.3543124 C176.399955,12.1212121 175.467855,11.8881119 174.76878,11.1888112 C174.069704,10.7226107 173.836679,10.02331 173.836679,9.09090909 C173.836679,8.62470862 173.836679,7.92540793 174.069704,7.69230769 C174.30273,7.22610723 174.535755,6.75990676 175.001805,6.52680653 C175.467855,6.29370629 175.933905,6.06060606 176.399955,5.82750583 C176.866005,5.59440559 177.56508,5.59440559 178.264155,5.59440559 C179.196255,5.59440559 180.128356,5.59440559 180.827431,5.82750583 C181.526506,6.06060606 182.225581,6.29370629 182.924656,6.75990676 L181.759531,8.85780886 Z" id="Path"></path>
                <path d="M193.643808,7.92540793 L188.750282,7.92540793 L188.750282,13.5198135 C188.750282,13.986014 188.750282,14.4522145 188.983307,14.6853147 C188.983307,14.9184149 189.216332,15.1515152 189.449357,15.3846154 C189.682382,15.6177156 189.915407,15.8508159 190.148432,15.8508159 C190.381457,15.8508159 190.614482,16.0839161 191.080532,16.0839161 C191.546582,16.0839161 192.012633,16.0839161 192.245658,15.8508159 C192.711708,15.6177156 192.944733,15.6177156 193.410783,15.3846154 L194.342883,16.7832168 C193.876833,17.016317 193.410783,17.4825175 192.711708,17.7156177 C192.245658,17.9487179 191.546582,17.9487179 190.847507,17.9487179 C190.148432,17.9487179 189.682382,17.9487179 189.216332,17.7156177 C188.750282,17.4825175 188.284232,17.2494172 188.051207,17.016317 C187.818182,16.7832168 187.352132,16.3170163 187.352132,15.6177156 C187.119107,15.1515152 187.119107,14.4522145 187.119107,13.7529138 L187.119107,7.92540793 L184.555831,7.92540793 L184.555831,6.06060606 L187.119107,6.06060606 L187.119107,2.33100233 L189.216332,2.33100233 L189.216332,6.06060606 L194.109858,6.06060606 L194.109858,7.92540793 L193.643808,7.92540793 Z" id="Path"></path>
                <path d="M201.566659,5.82750583 C202.265734,5.82750583 203.197834,6.06060606 203.663885,6.29370629 C204.129935,6.52680653 204.82901,6.99300699 205.29506,7.45920746 C205.76111,7.92540793 206.22716,8.62470862 206.460185,9.32400932 C206.69321,10.02331 206.926235,10.955711 206.926235,11.6550117 C206.926235,11.8881119 206.926235,11.8881119 206.926235,12.1212121 C206.926235,12.3543124 206.926235,12.3543124 206.926235,12.5874126 L197.838259,12.5874126 C197.838259,13.2867133 198.071284,13.7529138 198.304309,14.2191142 C198.537334,14.6853147 198.770359,15.1515152 199.236409,15.3846154 C199.702459,15.6177156 199.935484,15.8508159 200.401534,16.0839161 C200.867584,16.3170163 201.333634,16.3170163 201.799684,16.3170163 C202.498759,16.3170163 203.197834,16.0839161 203.663885,15.8508159 C204.36296,15.6177156 204.82901,15.1515152 205.29506,14.9184149 L206.460185,16.3170163 C205.994135,16.5501166 205.76111,17.016317 205.29506,17.2494172 C204.82901,17.4825175 204.595985,17.7156177 204.129935,17.7156177 C203.663885,17.9487179 203.430859,17.9487179 202.964809,17.9487179 C202.498759,17.9487179 202.032709,17.9487179 201.799684,17.9487179 C200.867584,17.9487179 200.168509,17.7156177 199.469434,17.4825175 C198.770359,17.2494172 198.071284,16.7832168 197.605233,16.3170163 C197.139183,15.8508159 196.673133,15.1515152 196.440108,14.4522145 C196.207083,13.7529138 195.974058,12.8205128 195.974058,11.8881119 C195.974058,10.955711 196.207083,10.2564103 196.440108,9.32400932 C196.673133,8.62470862 197.139183,7.92540793 197.605233,7.45920746 C198.071284,6.99300699 198.770359,6.52680653 199.469434,6.29370629 C199.935484,6.06060606 200.634559,5.82750583 201.566659,5.82750583 Z M201.566659,7.69230769 C201.100609,7.69230769 200.634559,7.69230769 200.168509,7.92540793 C199.702459,8.15850816 199.469434,8.39160839 199.003384,8.62470862 C198.770359,8.85780886 198.537334,9.32400932 198.304309,9.79020979 C198.071284,10.2564103 198.071284,10.7226107 197.838259,11.1888112 L204.82901,11.1888112 C204.82901,10.7226107 204.595985,10.2564103 204.36296,9.79020979 C204.129935,9.32400932 203.89691,9.09090909 203.663885,8.62470862 C203.430859,8.39160839 202.964809,8.15850816 202.731784,7.92540793 C202.498759,7.69230769 202.032709,7.69230769 201.566659,7.69230769 Z" id="Shape"></path>
                <path d="M215.548162,5.82750583 C216.014212,5.82750583 216.247237,5.82750583 216.713287,5.82750583 C217.179337,5.82750583 217.412362,6.06060606 217.645387,6.06060606 L217.179337,7.92540793 C216.946312,7.69230769 216.480262,7.69230769 216.247237,7.69230769 C215.781187,7.69230769 215.548162,7.69230769 215.315136,7.69230769 C214.849086,7.69230769 214.383036,7.69230769 214.150011,7.92540793 C213.683961,8.15850816 213.450936,8.39160839 213.217911,8.62470862 C212.984886,8.85780886 212.751861,9.32400932 212.518836,9.79020979 C212.285811,10.2564103 212.285811,10.7226107 212.285811,11.1888112 L212.285811,17.7156177 L210.188586,17.7156177 L210.188586,6.06060606 L212.052786,6.06060606 L212.052786,7.69230769 C212.518836,7.22610723 212.984886,6.75990676 213.450936,6.29370629 C214.150011,6.06060606 214.849086,5.82750583 215.548162,5.82750583 Z" id="Path"></path>
                <path d="M226.267313,5.82750583 C227.199413,5.82750583 227.898489,6.06060606 228.597564,6.29370629 C229.296639,6.52680653 229.995714,6.99300699 230.461764,7.45920746 C230.927814,7.92540793 231.393864,8.62470862 231.626889,9.32400932 C231.859914,10.02331 232.092939,10.955711 232.092939,11.6550117 C232.092939,12.3543124 231.859914,13.2867133 231.626889,13.986014 C231.393864,14.6853147 230.927814,15.3846154 230.461764,15.8508159 C229.995714,16.3170163 229.296639,16.7832168 228.597564,17.016317 C227.898489,17.2494172 227.199413,17.4825175 226.267313,17.4825175 C225.335213,17.4825175 224.636138,17.2494172 223.937063,17.016317 C223.237988,16.7832168 222.771938,16.3170163 222.305888,15.6177156 L222.305888,22.1445221 L220.208662,22.1445221 L220.208662,5.59440559 L222.305888,5.59440559 L222.305888,7.22610723 C222.771938,6.75990676 223.237988,6.29370629 223.937063,5.82750583 C224.636138,6.06060606 225.335213,5.82750583 226.267313,5.82750583 Z M226.034288,7.92540793 C225.335213,7.92540793 224.869163,7.92540793 224.403113,8.15850816 C223.937063,8.39160839 223.471013,8.62470862 223.237988,9.09090909 C222.771938,9.55710956 222.538913,10.02331 222.305888,10.4895105 C222.072863,10.955711 222.072863,11.6550117 222.072863,12.1212121 C222.072863,12.5874126 222.072863,13.2867133 222.305888,13.7529138 C222.538913,14.2191142 222.771938,14.6853147 223.237988,15.1515152 C223.704038,15.6177156 223.937063,15.8508159 224.403113,16.0839161 C224.869163,16.3170163 225.335213,16.3170163 226.034288,16.3170163 C226.733363,16.3170163 227.199413,16.3170163 227.665464,16.0839161 C228.131514,15.8508159 228.597564,15.6177156 228.830589,15.1515152 C229.296639,14.6853147 229.529664,14.2191142 229.529664,13.7529138 C229.762689,13.2867133 229.762689,12.8205128 229.762689,12.1212121 C229.762689,11.4219114 229.762689,10.955711 229.529664,10.4895105 C229.296639,10.02331 229.063614,9.55710956 228.830589,9.09090909 C228.364539,8.62470862 228.131514,8.39160839 227.665464,8.15850816 C227.199413,7.92540793 226.500338,7.92540793 226.034288,7.92540793 Z" id="Shape"></path>
                <path d="M246.307467,17.7156177 L244.210241,17.7156177 L244.210241,16.0839161 C243.744191,16.5501166 243.278141,17.016317 242.579066,17.4825175 C241.879991,17.7156177 241.180916,17.9487179 240.248816,17.9487179 C239.549741,17.9487179 238.61764,17.7156177 237.918565,17.4825175 C237.21949,17.2494172 236.520415,16.7832168 236.054365,16.3170163 C235.588315,15.8508159 235.122265,15.1515152 234.88924,14.4522145 C234.656215,13.7529138 234.42319,12.8205128 234.42319,12.1212121 C234.42319,11.4219114 234.656215,10.4895105 234.88924,9.79020979 C235.122265,9.09090909 235.588315,8.39160839 236.054365,7.92540793 C236.520415,7.45920746 237.21949,6.99300699 237.918565,6.75990676 C238.61764,6.52680653 239.316716,6.29370629 240.248816,6.29370629 C241.180916,6.29370629 241.879991,6.52680653 242.579066,6.75990676 C243.278141,6.99300699 243.744191,7.45920746 244.210241,8.15850816 L244.210241,6.52680653 L246.307467,6.52680653 L246.307467,17.7156177 Z M240.248816,7.92540793 C239.549741,7.92540793 239.083691,7.92540793 238.61764,8.15850816 C238.15159,8.39160839 237.68554,8.62470862 237.452515,9.09090909 C237.21949,9.55710956 236.75344,10.02331 236.75344,10.4895105 C236.520415,10.955711 236.520415,11.4219114 236.520415,12.1212121 C236.520415,12.8205128 236.520415,13.2867133 236.75344,13.7529138 C236.986465,14.2191142 237.21949,14.6853147 237.452515,15.1515152 C237.68554,15.6177156 238.15159,15.8508159 238.61764,16.0839161 C239.083691,16.3170163 239.549741,16.3170163 240.248816,16.3170163 C240.947891,16.3170163 241.413941,16.3170163 241.879991,16.0839161 C242.346041,15.8508159 242.812091,15.6177156 243.045116,15.1515152 C243.511166,14.6853147 243.744191,14.2191142 243.977216,13.7529138 C244.210241,13.2867133 244.210241,12.5874126 244.210241,12.1212121 C244.210241,11.6550117 244.210241,10.955711 243.977216,10.4895105 C243.744191,10.02331 243.511166,9.55710956 243.045116,9.09090909 C242.579066,8.62470862 242.346041,8.39160839 241.879991,8.15850816 C241.413941,7.92540793 240.947891,7.92540793 240.248816,7.92540793 Z" id="Shape"></path>
                <path d="M257.958719,8.85780886 C257.725694,8.62470862 257.492669,8.62470862 257.259644,8.39160839 C257.026619,8.15850816 256.793594,8.15850816 256.327543,7.92540793 C256.094518,7.92540793 255.628468,7.69230769 255.395443,7.69230769 C254.929393,7.69230769 254.696368,7.69230769 254.230318,7.69230769 C253.531243,7.69230769 252.832168,7.92540793 252.366118,8.15850816 C251.900068,8.39160839 251.667043,8.85780886 251.667043,9.32400932 C251.667043,9.79020979 251.900068,10.02331 252.366118,10.2564103 C252.832168,10.4895105 253.298218,10.7226107 253.997293,10.7226107 L255.395443,10.955711 C256.094518,10.955711 256.560568,11.1888112 257.026619,11.4219114 C257.492669,11.6550117 257.958719,11.8881119 258.191744,12.1212121 C258.424769,12.3543124 258.890819,12.8205128 258.890819,13.0536131 C259.123844,13.5198135 259.123844,13.7529138 259.123844,14.2191142 C259.123844,14.6853147 258.890819,15.3846154 258.657794,15.6177156 C258.424769,16.0839161 257.958719,16.5501166 257.725694,16.7832168 C257.259644,17.016317 256.793594,17.2494172 256.094518,17.4825175 C255.395443,17.7156177 254.696368,17.7156177 253.997293,17.7156177 C253.531243,17.7156177 253.298218,17.7156177 252.832168,17.7156177 C252.366118,17.7156177 251.900068,17.4825175 251.667043,17.4825175 C251.200993,17.4825175 250.734942,17.2494172 250.501917,17.016317 C250.035867,16.7832168 249.569817,16.5501166 249.336792,16.3170163 L250.268892,14.9184149 C250.501917,15.1515152 250.734942,15.1515152 250.967968,15.3846154 C251.200993,15.6177156 251.434018,15.6177156 251.900068,15.8508159 C252.366118,16.0839161 252.599143,16.0839161 253.065193,16.0839161 C253.531243,16.0839161 253.997293,16.0839161 254.463343,16.0839161 C255.395443,16.0839161 256.094518,15.8508159 256.793594,15.6177156 C257.492669,15.3846154 257.725694,14.9184149 257.725694,14.2191142 C257.725694,13.2867133 257.026619,12.8205128 255.395443,12.5874126 L253.997293,12.3543124 C252.599143,12.1212121 251.667043,11.8881119 250.967968,11.1888112 C250.268892,10.7226107 250.035867,10.02331 250.035867,9.09090909 C250.035867,8.62470862 250.035867,7.92540793 250.268892,7.69230769 C250.501917,7.22610723 250.734942,6.75990676 251.200993,6.52680653 C251.667043,6.29370629 252.133093,6.06060606 252.599143,5.82750583 C253.065193,5.59440559 253.764268,5.59440559 254.463343,5.59440559 C255.395443,5.59440559 256.327543,5.59440559 257.026619,5.82750583 C257.725694,6.06060606 258.424769,6.29370629 259.123844,6.75990676 L257.958719,8.85780886 Z" id="Path"></path>
                <path d="M270.076021,8.85780886 C269.842996,8.62470862 269.609971,8.62470862 269.376946,8.39160839 C269.143921,8.15850816 268.910896,8.15850816 268.444845,7.92540793 C268.21182,7.92540793 267.74577,7.69230769 267.512745,7.69230769 C267.046695,7.69230769 266.81367,7.69230769 266.34762,7.69230769 C265.648545,7.69230769 264.94947,7.92540793 264.48342,8.15850816 C264.01737,8.39160839 263.784345,8.85780886 263.784345,9.32400932 C263.784345,9.79020979 264.01737,10.02331 264.48342,10.2564103 C264.94947,10.4895105 265.41552,10.7226107 266.114595,10.7226107 L267.512745,10.955711 C268.21182,10.955711 268.677871,11.1888112 269.143921,11.4219114 C269.609971,11.6550117 270.076021,11.8881119 270.309046,12.1212121 C270.542071,12.3543124 271.008121,12.8205128 271.008121,13.0536131 C271.241146,13.5198135 271.241146,13.7529138 271.241146,14.2191142 C271.241146,14.6853147 271.008121,15.3846154 270.775096,15.6177156 C270.542071,16.0839161 270.076021,16.5501166 269.842996,16.7832168 C269.376946,17.016317 268.910896,17.2494172 268.21182,17.4825175 C267.512745,17.7156177 266.81367,17.7156177 266.114595,17.7156177 C265.648545,17.7156177 265.41552,17.7156177 264.94947,17.7156177 C264.48342,17.7156177 264.01737,17.4825175 263.784345,17.4825175 C263.318295,17.4825175 262.852245,17.2494172 262.619219,17.016317 C262.153169,16.7832168 261.687119,16.5501166 261.454094,16.3170163 L262.386194,14.9184149 C262.619219,15.1515152 262.852245,15.1515152 263.08527,15.3846154 C263.318295,15.6177156 263.55132,15.6177156 264.01737,15.8508159 C264.250395,15.8508159 264.716445,16.0839161 265.182495,16.0839161 C265.648545,16.0839161 266.114595,16.0839161 266.580645,16.0839161 C267.512745,16.0839161 268.21182,15.8508159 268.910896,15.6177156 C269.609971,15.3846154 269.842996,14.9184149 269.842996,14.2191142 C269.842996,13.2867133 269.143921,12.8205128 267.512745,12.5874126 L266.114595,12.3543124 C264.716445,12.1212121 263.784345,11.8881119 263.08527,11.1888112 C262.386194,10.7226107 262.153169,10.02331 262.153169,9.09090909 C262.153169,8.62470862 262.153169,7.92540793 262.386194,7.69230769 C262.619219,7.22610723 262.852245,6.75990676 263.318295,6.52680653 C263.784345,6.29370629 264.250395,6.06060606 264.716445,5.82750583 C265.182495,5.59440559 265.88157,5.59440559 266.580645,5.59440559 C267.512745,5.59440559 268.444845,5.59440559 269.143921,5.82750583 C269.842996,6.06060606 270.542071,6.29370629 271.241146,6.75990676 L270.076021,8.85780886 Z" id="Path"></path>
            </g>
            <rect id="Rectangle" fill="#FFFFFF" x="97.8705166" y="8.85780886" width="1.1651252" height="49.4172494"></rect>
        </g>
    </g>
</svg>