<svg id="Layer_1" data-name="Layer 1" xmlns="http://www.w3.org/2000/svg" viewBox="0 0 721 130"><path d="M720.18285,47.47106a10.91316,10.91316,0,0,1-10.91316,10.91316H627.74193a10.91317,10.91317,0,1,1,0-21.82633h81.49352A10.91316,10.91316,0,0,1,720.1828,47.43676l0,.0343" style="fill:#13110c"/><path d="M540.65915,64.39288h17.97463c.85593,7.70341,2.49077,10.9046,5.85459,13.84046s8.55934,4.27967,13.69495,4.27967c6.09425,0,10.69918-1.04424,13.81478-3.59492s4.69053-5.555,4.7162-9.013a8.55935,8.55935,0,0,0-1.90017-5.67485q-1.92585-2.35381-6.779-4.117-3.31248-1.18119-15.11581-4.22832-15.25275-3.86883-21.35556-9.42384A24.4596,24.4596,0,0,1,543.09,27.51922a24.13738,24.13738,0,0,1,4.19408-13.36114A25.47267,25.47267,0,0,1,559.0703,4.7428q7.70342-3.20119,18.47963-3.09848,17.65792.15407,26.534,7.96875c5.89739,5.21264,8.95307,12.78766,9.17562,21.39836H594.30913q-1.15551-7.24121-5.13561-10.4424c-2.65339-2.13127-6.63349-3.21831-11.98308-3.26967q-8.25976-.06847-12.95029,3.27823a6.8475,6.8475,0,0,0-3.05569,5.79468,7.207,7.207,0,0,0,2.76467,5.71764q3.56068,3.03,17.34124,6.41951t20.37123,6.92451a26.29439,26.29439,0,0,1,10.27122,9.62071q3.73188,6.11138,3.65484,14.98741a27.621,27.621,0,0,1-4.61349,15.09012,26.73938,26.73938,0,0,1-12.75342,10.27122c-5.478,2.234-12.45385,3.244-20.43116,3.244-8.49087,0-20.98751-2.43941-27.23584-8.68774-5.7262-5.6834-9.13282-13.053-9.8946-25.56676" style="fill:#13110c"/><polygon points="639.494 81.666 639.494 64.889 621.108 64.889 621.108 97.432 650.416 97.432 650.416 81.666 639.494 81.666" style="fill:#3299cf"/><path d="M641.7279,15.59605A10.819,10.819,0,1,1,630.90033,4.7856h.00855a10.81046,10.81046,0,0,1,10.819,10.80189v.00856" style="fill:#fcc700"/><path d="M652.63251,5.06806V20.42353s5.99154-.05992,8.91028,0a57.44058,57.44058,0,0,1,7.96874.7361c6.73621,1.03568,12.17139,3.612,14.2,10.15994h19.05309S697.15821,7.576,668.89525,5.2906c-2.07136-.137-3.42374-.19686-6.35959-.22254-5.42662-.0428-9.90317,0-9.90317,0" style="fill:#3299cf"/><path d="M685.38055,65.29161H704.3823s-2.311,32.1917-43.05351,32.14034V81.70844s20.32844.95008,24.05176-16.374" style="fill:#3299cf"/><path d="M548.25985,109.66326h2.20831l4.9901,15.792h-1.53212l-1.592-5.13561h-5.99154l-1.62628,5.13561h-1.515Zm3.74043,9.41528-2.62771-8.26833h-.0428l-2.5678,8.26833Z" style="fill:#13110c"/><path d="M565.156,109.65469h5.23832a8.76483,8.76483,0,0,1,2.89306.4622,5.99141,5.99141,0,0,1,2.24254,1.42087,6.53913,6.53913,0,0,1,1.44653,2.4822,12.31686,12.31686,0,0,1,0,7.09569,6.42783,6.42783,0,0,1-1.44653,2.45654,5.99136,5.99136,0,0,1-2.234,1.42941,8.76477,8.76477,0,0,1-2.89306.45365h-5.22119Zm3.01289,13.267h2.01144a4.46807,4.46807,0,0,0,2.08848-.43653,3.21829,3.21829,0,0,0,1.31814-1.15551,5.03288,5.03288,0,0,0,.66763-1.71187,10.6472,10.6472,0,0,0,.19686-2.097,10.49332,10.49332,0,0,0-.19686-2.08848,5.07555,5.07555,0,0,0-.66763-1.71187,3.27819,3.27819,0,0,0-1.31814-1.15552,4.57924,4.57924,0,0,0-2.08848-.428h-2.01144Z" style="fill:#13110c"/><path d="M580.00646,125.45525v-15.792h5.79468a6.44522,6.44522,0,0,1,4.10849,1.16407,5.00723,5.00723,0,0,1,0,7.07858,6.44522,6.44522,0,0,1-4.10849,1.15552h-2.77323v6.39383Zm3.02145-8.83324h2.41373a3.46648,3.46648,0,0,0,2.25967-.57347,2.525,2.525,0,0,0,0-3.42374,3.5263,3.5263,0,0,0-2.25966-.55635h-2.41374Z" style="fill:#13110c"/><path d="M605.1367,123.56363a6.78569,6.78569,0,0,1-9.84325,0,9.27485,9.27485,0,0,1-1.71187-5.99154,9.2749,9.2749,0,0,1,1.71187-5.99155,6.78569,6.78569,0,0,1,9.84325,0,9.275,9.275,0,0,1,1.71186,5.99155,9.27491,9.27491,0,0,1-1.71186,5.99154m-4.92163-11.5808q-3.612,0-3.612,5.5807c0,3.7062,1.20687,5.57213,3.612,5.57213s3.61205-1.86593,3.61205-5.57213-1.20687-5.5807-3.61205-5.5807" style="fill:#13110c"/><path d="M625.33675,114.30242a6.231,6.231,0,0,0-1.48932-2.72186,3.22685,3.22685,0,0,0-2.36238-.96721,3.8088,3.8088,0,0,0-1.99433.53067,4.27977,4.27977,0,0,0-1.41229,1.47221,7.31842,7.31842,0,0,0-.85594,2.20831,13.83185,13.83185,0,0,0,0,5.478,7.13859,7.13859,0,0,0,.85594,2.19976,4.27975,4.27975,0,0,0,1.45508,1.46365,4.05725,4.05725,0,0,0,2.097.53068,3.97161,3.97161,0,0,0,1.592-.30814,3.20123,3.20123,0,0,0,1.12983-.85594,4.7499,4.7499,0,0,0,.74467-1.18974,9.04737,9.04737,0,0,0,.51356-1.52357l1.35238.24822a6.71055,6.71055,0,0,1-1.71187,3.52644,4.8531,4.8531,0,0,1-3.60349,1.26678,5.51213,5.51213,0,0,1-2.5678-.582,5.341,5.341,0,0,1-1.90874-1.65194,7.55806,7.55806,0,0,1-1.20687-2.56781,13.32693,13.32693,0,0,1,0-6.63349,7.70341,7.70341,0,0,1,1.20687-2.5678,5.341,5.341,0,0,1,1.90874-1.65195,5.51225,5.51225,0,0,1,2.5678-.582,4.43372,4.43372,0,0,1,3.26111,1.23255,7.16414,7.16414,0,0,1,1.79746,3.33814Z" style="fill:#13110c"/><path d="M636.19,114.3281a3.89436,3.89436,0,0,1,1.46365,1.29246,5.99145,5.99145,0,0,1,.78746,1.87449,11.29,11.29,0,0,1,0,4.545,6.11979,6.11979,0,0,1-.78746,1.8745,3.80039,3.80039,0,0,1-1.46365,1.28391,5.26407,5.26407,0,0,1-4.39094,0,3.71477,3.71477,0,0,1-1.45508-1.28391,5.54636,5.54636,0,0,1-.78746-1.8745,10.528,10.528,0,0,1,0-4.545,5.40935,5.40935,0,0,1,.78746-1.87449,3.80024,3.80024,0,0,1,1.45508-1.29246,5.35813,5.35813,0,0,1,4.39094,0m-4.74187,1.8317a8.32823,8.32823,0,0,0,0,7.21552,3.21831,3.21831,0,0,0,5.1356,0,8.32823,8.32823,0,0,0,0-7.21552,3.21831,3.21831,0,0,0-5.1356,0" style="fill:#13110c"/><path d="M641.93332,125.45525V114.08844h1.31814v1.71187a8.33671,8.33671,0,0,1,1.76322-1.48933,4.05714,4.05714,0,0,1,2.02-.45365,2.9016,2.9016,0,0,1,1.71187.57348,2.6705,2.6705,0,0,1,1.01856,1.50644,7.09568,7.09568,0,0,1,1.71187-1.54069,3.81748,3.81748,0,0,1,2.02-.53924c2.00289,0,2.99578,1.02712,2.99578,3.08992v8.508h-1.30958v-8.65349c0-1.26678-.65051-1.90018-1.96866-1.90018a2.38818,2.38818,0,0,0-.85593.17976,4.66469,4.66469,0,0,0-.96721.48789,6.70153,6.70153,0,0,0-.89873.71042,4.87026,4.87026,0,0,0-.65908.78746v8.37959h-1.31813v-8.64494c0-1.26678-.65051-1.90018-1.96865-1.90018a2.35377,2.35377,0,0,0-.85594.17976,4.66494,4.66494,0,0,0-.96721.48789,6.70153,6.70153,0,0,0-.89873.71042,4.86969,4.86969,0,0,0-.65907.78746v8.37959Z" style="fill:#13110c"/><path d="M661.0549,114.08844H662.373v1.71187h0a4.02285,4.02285,0,0,1,3.42374-1.96865,3.84317,3.84317,0,0,1,1.93441.48788,4.27978,4.27978,0,0,1,1.44653,1.30958,6.35974,6.35974,0,0,1,.85593,1.9173,8.18306,8.18306,0,0,1,.30814,2.25967,6.71913,6.71913,0,0,1-1.21543,4.36527,4.02284,4.02284,0,0,1-3.26967,1.48076,4.21965,4.21965,0,0,1-1.90873-.40229,5.5806,5.5806,0,0,1-1.65195-1.30958v5.51222h-1.31813Zm1.31813,8.508a3.13308,3.13308,0,0,0,.51357.65051,5.28934,5.28934,0,0,0,.796.66762,5.70082,5.70082,0,0,0,.95009.51357,2.61926,2.61926,0,0,0,.95009.19686,2.96153,2.96153,0,0,0,2.63628-1.31813,6.58216,6.58216,0,0,0,.85593-3.71476,6.847,6.847,0,0,0-.20543-1.71186,4.98989,4.98989,0,0,0-.62483-1.49789,3.12418,3.12418,0,0,0-1.03568-1.0528,2.73905,2.73905,0,0,0-1.45509-.38516,2.92721,2.92721,0,0,0-1.71187.47932,13.46331,13.46331,0,0,0-1.71187,1.592Z" style="fill:#13110c"/><path d="M679.894,125.45525l-.17975-1.37806a9.13244,9.13244,0,0,1-1.98577,1.224,5.60632,5.60632,0,0,1-2.1484.37662,3.23544,3.23544,0,0,1-2.24254-.796,2.80742,2.80742,0,0,1-.85593-2.18263,3.58624,3.58624,0,0,1,.45364-1.88306,3.42391,3.42391,0,0,1,1.35238-1.224,9.01324,9.01324,0,0,1,2.07991-.80458c.78746-.22253,1.92586-.48788,3.42374-.81313v-.78746a2.25968,2.25968,0,0,0-.5906-1.71187,2.9273,2.9273,0,0,0-2.01145-.5478,3.83464,3.83464,0,0,0-3.30391,2.05424l-.85593-.52212a4.87887,4.87887,0,0,1,1.76322-1.96865,4.75049,4.75049,0,0,1,2.4651-.61627,4.16837,4.16837,0,0,1,2.87594.85593,3.52644,3.52644,0,0,1,.933,2.71331v5.99154a12.03513,12.03513,0,0,0,.17119,2.07992Zm-.22254-6.42807a26.93121,26.93121,0,0,0-3.08137.85594,7.06125,7.06125,0,0,0-1.79746.85593,2.25108,2.25108,0,0,0-.85594.85594,2.61925,2.61925,0,0,0-.20543,1.06992,1.88309,1.88309,0,0,0,.55635,1.438,2.0885,2.0885,0,0,0,1.48077.51357,4.63058,4.63058,0,0,0,1.96865-.505,6.56509,6.56509,0,0,0,1.90018-1.38661Z" style="fill:#13110c"/><path d="M685.295,125.45525V114.08844h1.30958v1.7889a8.49062,8.49062,0,0,1,1.85737-1.53212,4.05716,4.05716,0,0,1,2.03713-.48789,3.167,3.167,0,0,1,2.56781.96721,4.3225,4.3225,0,0,1,.85593,2.86739v7.76333h-1.30958v-7.63493a3.69765,3.69765,0,0,0-.53067-2.18264,2.05423,2.05423,0,0,0-1.7889-.72755,2.816,2.816,0,0,0-1.515.40229,14.72352,14.72352,0,0,0-1.71187,1.41229l-.39374.35094v8.37959Z" style="fill:#13110c"/><path d="M701.17254,123.33253h.05136l3.167-9.25265h1.40373l-4.27967,12.18852a6.06854,6.06854,0,0,1-1.36093,2.47365,3.167,3.167,0,0,1-2.27679.7361,4.622,4.622,0,0,1-1.21542-.12838v-1.06992l.41084.05992a5.93058,5.93058,0,0,0,.89873.0856,1.943,1.943,0,0,0,1.44654-.75323,5.85467,5.85467,0,0,0,1.10415-2.39662l-3.95442-11.19562h1.44653Z" style="fill:#13110c"/><path d="M633.665,50.28708a3.00433,3.00433,0,0,1-1.12983,2.47365,4.896,4.896,0,0,1-3.13272.85594,7.42113,7.42113,0,0,1-3.28679-.69331V50.68081a12.94215,12.94215,0,0,0,1.98577.7361,5.73458,5.73458,0,0,0,1.48932.214,2.12274,2.12274,0,0,0,1.24111-.30814,1.06989,1.06989,0,0,0,.428-.91585,1.00146,1.00146,0,0,0-.1883-.60771,2.33686,2.33686,0,0,0-.55636-.51356,15.861,15.861,0,0,0-1.50645-.7789,6.95935,6.95935,0,0,1-1.592-.95865,3.7747,3.7747,0,0,1-.85593-1.06992,3.03011,3.03011,0,0,1-.3167-1.42941,2.98724,2.98724,0,0,1,1.04424-2.41374,4.27969,4.27969,0,0,1,2.87594-.85593,7.08726,7.08726,0,0,1,1.71187.214,11.8382,11.8382,0,0,1,1.71187.60772l-.796,1.90873a10.34864,10.34864,0,0,0-1.53212-.53068,4.77619,4.77619,0,0,0-1.18975-.15407,1.60063,1.60063,0,0,0-1.06992.32526,1.06134,1.06134,0,0,0-.36805.85593,1.027,1.027,0,0,0,.14551.56492,1.71185,1.71185,0,0,0,.47932.47076,16.638,16.638,0,0,0,1.5578.81314,6.274,6.274,0,0,1,2.22543,1.54924A3.04712,3.04712,0,0,1,633.665,50.28708Z" style="fill:#fff"/><path d="M639.6651,53.65946a4.55357,4.55357,0,0,1-3.33815-1.18118,4.45943,4.45943,0,0,1-1.20687-3.33815,4.87879,4.87879,0,0,1,1.11272-3.42374,3.963,3.963,0,0,1,3.08136-1.21542,3.8945,3.8945,0,0,1,2.91873,1.06136,4.04853,4.04853,0,0,1,1.04424,2.96153V49.6965h-5.70908a2.34526,2.34526,0,0,0,.60772,1.60915,2.157,2.157,0,0,0,1.6006.57348,6.63367,6.63367,0,0,0,1.515-.16263,7.62618,7.62618,0,0,0,1.48932-.53069v1.84882a5.50374,5.50374,0,0,1-1.35238.47077A8.55937,8.55937,0,0,1,639.6651,53.65946Zm-.34238-7.46375a1.53214,1.53214,0,0,0-1.19831.48789,2.2682,2.2682,0,0,0-.505,1.38661h3.42374a2.06281,2.06281,0,0,0-.47076-1.38661A1.5835,1.5835,0,0,0,639.32272,46.19571Z" style="fill:#fff"/><path d="M648.92631,53.65946q-4.14273,0-4.14272-4.53645a4.82746,4.82746,0,0,1,1.12984-3.42374,4.20265,4.20265,0,0,1,3.22686-1.21543,6.14553,6.14553,0,0,1,2.75611.59916l-.719,1.86593c-.37661-.15406-.72755-.27389-1.06136-.37661a3.50078,3.50078,0,0,0-.97577-.1455c-1.25822,0-1.89162.85593-1.89162,2.67907s.6334,2.56781,1.89162,2.56781a4.39106,4.39106,0,0,0,1.2839-.18831,4.63063,4.63063,0,0,0,1.18975-.582v2.06281a3.87735,3.87735,0,0,1-1.18119.52212A6.7445,6.7445,0,0,1,648.92631,53.65946Z" style="fill:#fff"/><path d="M660.01066,53.5054l-.32526-1.1384H659.557a2.47363,2.47363,0,0,1-1.10415.95865,3.78318,3.78318,0,0,1-1.62627.33381,3.07276,3.07276,0,0,1-2.34526-.85593,3.35533,3.35533,0,0,1-.796-2.40517V44.64647h2.41375v5.13561a2.5079,2.5079,0,0,0,.34236,1.438,1.23256,1.23256,0,0,0,1.087.47932,1.61773,1.61773,0,0,0,1.46365-.67619,4.18555,4.18555,0,0,0,.45364-2.24255V44.64647h2.41374V53.5054Z" style="fill:#fff"/><path d="M669.40026,44.48384a3.68,3.68,0,0,1,.85593.06848l-.17975,2.26822a3.01291,3.01291,0,0,0-2.51645.51356,2.12274,2.12274,0,0,0-.6505,1.66052v4.51077h-2.448V44.64647H666.259l.35094,1.48933h.11983a3.3296,3.3296,0,0,1,1.11272-1.19831A2.71328,2.71328,0,0,1,669.40026,44.48384Z" style="fill:#fff"/><path d="M675.90537,53.65946a4.57923,4.57923,0,0,1-3.34671-1.18118,4.45939,4.45939,0,0,1-1.16407-3.29536,4.92162,4.92162,0,0,1,1.11272-3.42373,4.53946,4.53946,0,0,1,6.00866-.15407,4.08281,4.08281,0,0,1,1.04424,2.96154v1.17263h-5.71764a2.311,2.311,0,0,0,.61628,1.60915,2.13128,2.13128,0,0,0,1.60059.57348,6.55616,6.55616,0,0,0,1.50644-.16263,7.62689,7.62689,0,0,0,1.48933-.53068v1.806a5.50374,5.50374,0,0,1-1.35238.47077A8.5591,8.5591,0,0,1,675.90537,53.65946Zm-.34237-7.46375a1.53215,1.53215,0,0,0-1.20687.48789,2.25965,2.25965,0,0,0-.49645,1.38661h3.42374a1.9772,1.9772,0,0,0-.47076-1.38661,1.56635,1.56635,0,0,0-1.24967-.48789Z" style="fill:#fff"/><path d="M692.71592,53.5054H686.0482V41.9246h6.66772V43.936h-4.20264v2.56781h3.92018V48.5153h-3.92018v2.98721h4.21119Z" style="fill:#fff"/><path d="M697.61187,53.5054h-2.41375V41.9246h6.642V43.936h-4.22832v2.98722h3.92874v2.00288h-3.92874Z" style="fill:#fff"/><path d="M708.65342,53.5054h-2.45653V43.96172h-3.13273V41.9246h8.73053v2.03712h-3.14127Z" style="fill:#fff"/></svg>