<svg id="Layer_1" data-name="Layer 1" xmlns="http://www.w3.org/2000/svg" viewBox="0 0 721 130"><g id="Shape"><path d="M267.19959,22.78423a2.50083,2.50083,0,0,0,.40544-.43923l.70953-.82216A11.60031,11.60031,0,0,0,251.04925,6.0933l-60.637,65.88526A11.39755,11.39755,0,0,0,188.1598,78.736a11.65661,11.65661,0,0,0,11.62279,11.69035l.03383.00006h57.85514a11.64536,11.64536,0,0,0,0-23.27946H227.66843s-2.25249-.4505-.214-2.444Z" style="fill:#005cb7;fill-rule:evenodd"/><path d="M243.22186,2.72583h-42.572a11.66788,11.66788,0,0,0,0,23.33576h21.6464Z" style="fill:#005cb7;fill-rule:evenodd"/><path d="M309.35489,4.69675s-23.21189.19147-28.35882,12.50131c0,0-1.588,7.726-.97983,12.90675,0,0,11.26243-8.4243,26.19643-8.71712,18.66186-.40545,16.89366,15.48585,16.89366,15.48585S270.736,30.927,270.736,68.0367c0,0,0,24.19171,28.56154,24.19171,0,0,15.85751-1.39654,23.39209-14.2695V90.066s23.5948,2.38764,23.5948-17.86223V29.09119S345.15819,4.67423,309.4,4.67423ZM306.1,74.99689c-12.18595.41671-12.46751-12.38868-12.46751-12.38868s-1.65558-9.25773,14.72-10.87952c0,0,14.87769-1.90335,15.01283,1.30645,0,0,2.02725,21.20717-17.26532,21.90544Z" style="fill:#005cb7;fill-rule:evenodd"/><path d="M405.63747,5.51891s-22.06311.4505-26.8046,14.64117V5.58649S353.49238,3.04117,353.49238,23.46s.259,105.78808.259,105.78808,25.08146,2.37636,25.08146-18.50419v-30.814s8.35672,13.2559,24.22549,13.2559c18.29021,0,37.30119-12.49,37.30119-47.122,0-41.05158-34.7221-40.54477-34.7221-40.54477ZM393.81191,72.8345c-7.253,0-16.06023-9.38162-16.06023-25.7572S386.36744,23.46,396.19954,23.46c0,0,19.04479.856,19.04479,23.11053s-13.132,26.264-21.39863,26.264Z" style="fill:#005cb7;fill-rule:evenodd"/><path d="M496.43523,5.51891s-22.06311.4505-26.80458,14.64117V5.58649S444.29016,3.04117,444.29016,23.46s.22525,105.78808.22525,105.78808,25.08145,2.37636,25.08145-18.50419v-30.814s8.30041,13.2559,24.23675,13.2559c18.279,0,37.28992-12.49,37.28992-47.122C531.12353,5.01211,496.43523,5.51892,496.43523,5.51891ZM484.68852,72.8345c-7.253,0-16.06025-9.38162-16.06025-25.7572S477.28909,23.46,487.04237,23.46c0,0,19.04478.856,19.04478,23.11053S492.92136,72.8345,484.68852,72.8345Z" style="fill:#005cb7;fill-rule:evenodd"/><path d="M595.6911,11.2177a41.28822,41.28822,0,0,0-19.02227-4.65138c-23.33577,0-42.25666,19.27-42.25666,43.045s18.92089,43.05629,42.25666,43.05629c1.23887,0,2.4552-.06757,3.66029-.15768a52.35919,52.35919,0,0,0,15.60972-4.61759,42.93246,42.93246,0,0,0,9.9222-7.24175,25.498,25.498,0,0,0,6.17183-12.0508h-3.59272s-6.611,6.75746-26.96228,6.75746S558.29979,54.9948,558.29979,54.9948h55.35488c.57439-6.32949,1.588-32.84127-17.9636-43.81088Zm-4.65139,30.1045H558.19844s.82217-18.90963,17.23151-18.90963S591.03971,41.3222,591.03971,41.3222Z" style="fill:#005cb7;fill-rule:evenodd"/><path d="M645.03183,51.2782c0-16.40938,7.56836-23.45966,17.3667-23.45966a21.70265,21.70265,0,0,1,9.01,2.917V5.51891c-3.05211.16894-22.00681,1.56548-26.33159,14.64117V5.5527s-25.34048-2.54531-25.34048,17.87349.09008,67.31559.09008,67.31559,25.21662,1.74568,25.21662-19.14614V51.32325Z" style="fill:#005cb7;fill-rule:evenodd"/><path d="M689.20311,6.983h-6.45338V4.73054h15.57593V6.983h-6.45339V25.9715h-2.703V6.983Z" style="fill:#005cb7;fill-rule:evenodd"/><path d="M701.986,4.69675h3.2098l4.09951,11.42011,1.53167,4.34731h.12387l1.49789-4.34731,4.06573-11.42011h3.176V25.9715H717.179V14.26983c0-1.88083.214-4.42614.34914-6.29571H717.393l-1.67809,4.74149L711.54779,23.8429h-1.55423l-4.077-11.12729L704.2272,7.97412h-.12387c.12387,1.86957.31535,4.41488.31535,6.29571V25.9715h-2.51154V4.69675Z" style="fill:#005cb7;fill-rule:evenodd"/></g></svg>